<svg xmlns="http://www.w3.org/2000/svg" xmlns:xlink="http://www.w3.org/1999/xlink" width="600" height="400" viewBox="0 0 2400 1600">
<defs>
  <clipPath id="clip380">
    <rect x="0" y="0" width="2400" height="1600"></rect>
  </clipPath>
</defs>
<path clip-path="url(#clip380)" d="M0 1600 L2400 1600 L2400 8.88178e-14 L0 8.88178e-14  Z" fill="#ffffff" fill-rule="evenodd" fill-opacity="1"></path>
<defs>
  <clipPath id="clip381">
    <rect x="480" y="0" width="1681" height="1600"></rect>
  </clipPath>
</defs>
<path clip-path="url(#clip380)" d="M235.283 1423.18 L2352.76 1423.18 L2352.76 123.472 L235.283 123.472  Z" fill="#ffffff" fill-rule="evenodd" fill-opacity="1"></path>
<defs>
  <clipPath id="clip382">
    <rect x="235" y="123" width="2118" height="1301"></rect>
  </clipPath>
</defs>
<polyline clip-path="url(#clip382)" style="stroke:#000000; stroke-linecap:round; stroke-linejoin:round; stroke-width:2; stroke-opacity:0.1; fill:none" points="235.283,1423.18 235.283,123.472 "></polyline>
<polyline clip-path="url(#clip382)" style="stroke:#000000; stroke-linecap:round; stroke-linejoin:round; stroke-width:2; stroke-opacity:0.1; fill:none" points="758.116,1423.18 758.116,123.472 "></polyline>
<polyline clip-path="url(#clip382)" style="stroke:#000000; stroke-linecap:round; stroke-linejoin:round; stroke-width:2; stroke-opacity:0.1; fill:none" points="1280.95,1423.18 1280.95,123.472 "></polyline>
<polyline clip-path="url(#clip382)" style="stroke:#000000; stroke-linecap:round; stroke-linejoin:round; stroke-width:2; stroke-opacity:0.1; fill:none" points="1803.78,1423.18 1803.78,123.472 "></polyline>
<polyline clip-path="url(#clip382)" style="stroke:#000000; stroke-linecap:round; stroke-linejoin:round; stroke-width:2; stroke-opacity:0.1; fill:none" points="2326.61,1423.18 2326.61,123.472 "></polyline>
<polyline clip-path="url(#clip380)" style="stroke:#000000; stroke-linecap:round; stroke-linejoin:round; stroke-width:4; stroke-opacity:1; fill:none" points="235.283,1423.18 2352.76,1423.18 "></polyline>
<polyline clip-path="url(#clip380)" style="stroke:#000000; stroke-linecap:round; stroke-linejoin:round; stroke-width:4; stroke-opacity:1; fill:none" points="235.283,1423.18 235.283,1404.28 "></polyline>
<polyline clip-path="url(#clip380)" style="stroke:#000000; stroke-linecap:round; stroke-linejoin:round; stroke-width:4; stroke-opacity:1; fill:none" points="758.116,1423.18 758.116,1404.28 "></polyline>
<polyline clip-path="url(#clip380)" style="stroke:#000000; stroke-linecap:round; stroke-linejoin:round; stroke-width:4; stroke-opacity:1; fill:none" points="1280.95,1423.18 1280.95,1404.28 "></polyline>
<polyline clip-path="url(#clip380)" style="stroke:#000000; stroke-linecap:round; stroke-linejoin:round; stroke-width:4; stroke-opacity:1; fill:none" points="1803.78,1423.18 1803.78,1404.28 "></polyline>
<polyline clip-path="url(#clip380)" style="stroke:#000000; stroke-linecap:round; stroke-linejoin:round; stroke-width:4; stroke-opacity:1; fill:none" points="2326.61,1423.18 2326.61,1404.28 "></polyline>
<path clip-path="url(#clip380)" d="M235.283 1454.1 Q231.672 1454.1 229.843 1457.66 Q228.038 1461.2 228.038 1468.33 Q228.038 1475.44 229.843 1479.01 Q231.672 1482.55 235.283 1482.55 Q238.917 1482.55 240.723 1479.01 Q242.551 1475.44 242.551 1468.33 Q242.551 1461.2 240.723 1457.66 Q238.917 1454.1 235.283 1454.1 M235.283 1450.39 Q241.093 1450.39 244.149 1455 Q247.227 1459.58 247.227 1468.33 Q247.227 1477.06 244.149 1481.67 Q241.093 1486.25 235.283 1486.25 Q229.473 1486.25 226.394 1481.67 Q223.338 1477.06 223.338 1468.33 Q223.338 1459.58 226.394 1455 Q229.473 1450.39 235.283 1450.39 Z" fill="#000000" fill-rule="nonzero" fill-opacity="1"></path><path clip-path="url(#clip380)" d="M702.641 1481.64 L710.28 1481.64 L710.28 1455.28 L701.97 1456.95 L701.97 1452.69 L710.234 1451.02 L714.91 1451.02 L714.91 1481.64 L722.549 1481.64 L722.549 1485.58 L702.641 1485.58 L702.641 1481.64 Z" fill="#000000" fill-rule="nonzero" fill-opacity="1"></path><path clip-path="url(#clip380)" d="M741.993 1454.1 Q738.382 1454.1 736.553 1457.66 Q734.748 1461.2 734.748 1468.33 Q734.748 1475.44 736.553 1479.01 Q738.382 1482.55 741.993 1482.55 Q745.627 1482.55 747.433 1479.01 Q749.262 1475.44 749.262 1468.33 Q749.262 1461.2 747.433 1457.66 Q745.627 1454.1 741.993 1454.1 M741.993 1450.39 Q747.803 1450.39 750.859 1455 Q753.937 1459.58 753.937 1468.33 Q753.937 1477.06 750.859 1481.67 Q747.803 1486.25 741.993 1486.25 Q736.183 1486.25 733.104 1481.67 Q730.049 1477.06 730.049 1468.33 Q730.049 1459.58 733.104 1455 Q736.183 1450.39 741.993 1450.39 Z" fill="#000000" fill-rule="nonzero" fill-opacity="1"></path><path clip-path="url(#clip380)" d="M772.155 1454.1 Q768.544 1454.1 766.715 1457.66 Q764.91 1461.2 764.91 1468.33 Q764.91 1475.44 766.715 1479.01 Q768.544 1482.55 772.155 1482.55 Q775.789 1482.55 777.595 1479.01 Q779.423 1475.44 779.423 1468.33 Q779.423 1461.2 777.595 1457.66 Q775.789 1454.1 772.155 1454.1 M772.155 1450.39 Q777.965 1450.39 781.021 1455 Q784.099 1459.58 784.099 1468.33 Q784.099 1477.06 781.021 1481.67 Q777.965 1486.25 772.155 1486.25 Q766.345 1486.25 763.266 1481.67 Q760.211 1477.06 760.211 1468.33 Q760.211 1459.58 763.266 1455 Q766.345 1450.39 772.155 1450.39 Z" fill="#000000" fill-rule="nonzero" fill-opacity="1"></path><path clip-path="url(#clip380)" d="M802.317 1454.1 Q798.706 1454.1 796.877 1457.66 Q795.072 1461.2 795.072 1468.33 Q795.072 1475.44 796.877 1479.01 Q798.706 1482.55 802.317 1482.55 Q805.951 1482.55 807.757 1479.01 Q809.585 1475.44 809.585 1468.33 Q809.585 1461.2 807.757 1457.66 Q805.951 1454.1 802.317 1454.1 M802.317 1450.39 Q808.127 1450.39 811.183 1455 Q814.261 1459.58 814.261 1468.33 Q814.261 1477.06 811.183 1481.67 Q808.127 1486.25 802.317 1486.25 Q796.507 1486.25 793.428 1481.67 Q790.372 1477.06 790.372 1468.33 Q790.372 1459.58 793.428 1455 Q796.507 1450.39 802.317 1450.39 Z" fill="#000000" fill-rule="nonzero" fill-opacity="1"></path><path clip-path="url(#clip380)" d="M1229.56 1481.64 L1245.88 1481.64 L1245.88 1485.58 L1223.93 1485.58 L1223.93 1481.64 Q1226.6 1478.89 1231.18 1474.26 Q1235.79 1469.61 1236.97 1468.27 Q1239.21 1465.74 1240.09 1464.01 Q1241 1462.25 1241 1460.56 Q1241 1457.8 1239.05 1456.07 Q1237.13 1454.33 1234.03 1454.33 Q1231.83 1454.33 1229.37 1455.09 Q1226.94 1455.86 1224.17 1457.41 L1224.17 1452.69 Q1226.99 1451.55 1229.44 1450.97 Q1231.9 1450.39 1233.93 1450.39 Q1239.31 1450.39 1242.5 1453.08 Q1245.69 1455.77 1245.69 1460.26 Q1245.69 1462.39 1244.88 1464.31 Q1244.1 1466.2 1241.99 1468.8 Q1241.41 1469.47 1238.31 1472.69 Q1235.21 1475.88 1229.56 1481.64 Z" fill="#000000" fill-rule="nonzero" fill-opacity="1"></path><path clip-path="url(#clip380)" d="M1265.69 1454.1 Q1262.08 1454.1 1260.25 1457.66 Q1258.45 1461.2 1258.45 1468.33 Q1258.45 1475.44 1260.25 1479.01 Q1262.08 1482.55 1265.69 1482.55 Q1269.33 1482.55 1271.13 1479.01 Q1272.96 1475.44 1272.96 1468.33 Q1272.96 1461.2 1271.13 1457.66 Q1269.33 1454.1 1265.69 1454.1 M1265.69 1450.39 Q1271.5 1450.39 1274.56 1455 Q1277.64 1459.58 1277.64 1468.33 Q1277.64 1477.06 1274.56 1481.67 Q1271.5 1486.25 1265.69 1486.25 Q1259.88 1486.25 1256.81 1481.67 Q1253.75 1477.06 1253.75 1468.33 Q1253.75 1459.58 1256.81 1455 Q1259.88 1450.39 1265.69 1450.39 Z" fill="#000000" fill-rule="nonzero" fill-opacity="1"></path><path clip-path="url(#clip380)" d="M1295.86 1454.1 Q1292.24 1454.1 1290.42 1457.66 Q1288.61 1461.2 1288.61 1468.33 Q1288.61 1475.44 1290.42 1479.01 Q1292.24 1482.55 1295.86 1482.55 Q1299.49 1482.55 1301.3 1479.01 Q1303.12 1475.44 1303.12 1468.33 Q1303.12 1461.2 1301.3 1457.66 Q1299.49 1454.1 1295.86 1454.1 M1295.86 1450.39 Q1301.67 1450.39 1304.72 1455 Q1307.8 1459.58 1307.8 1468.33 Q1307.8 1477.06 1304.72 1481.67 Q1301.67 1486.25 1295.86 1486.25 Q1290.05 1486.25 1286.97 1481.67 Q1283.91 1477.06 1283.91 1468.33 Q1283.91 1459.58 1286.97 1455 Q1290.05 1450.39 1295.86 1450.39 Z" fill="#000000" fill-rule="nonzero" fill-opacity="1"></path><path clip-path="url(#clip380)" d="M1326.02 1454.1 Q1322.41 1454.1 1320.58 1457.66 Q1318.77 1461.2 1318.77 1468.33 Q1318.77 1475.44 1320.58 1479.01 Q1322.41 1482.55 1326.02 1482.55 Q1329.65 1482.55 1331.46 1479.01 Q1333.29 1475.44 1333.29 1468.33 Q1333.29 1461.2 1331.46 1457.66 Q1329.65 1454.1 1326.02 1454.1 M1326.02 1450.39 Q1331.83 1450.39 1334.88 1455 Q1337.96 1459.58 1337.96 1468.33 Q1337.96 1477.06 1334.88 1481.67 Q1331.83 1486.25 1326.02 1486.25 Q1320.21 1486.25 1317.13 1481.67 Q1314.07 1477.06 1314.07 1468.33 Q1314.07 1459.58 1317.13 1455 Q1320.21 1450.39 1326.02 1450.39 Z" fill="#000000" fill-rule="nonzero" fill-opacity="1"></path><path clip-path="url(#clip380)" d="M1762.46 1466.95 Q1765.82 1467.66 1767.69 1469.93 Q1769.59 1472.2 1769.59 1475.53 Q1769.59 1480.65 1766.07 1483.45 Q1762.55 1486.25 1756.07 1486.25 Q1753.9 1486.25 1751.58 1485.81 Q1749.29 1485.39 1746.84 1484.54 L1746.84 1480.02 Q1748.78 1481.16 1751.1 1481.74 Q1753.41 1482.32 1755.93 1482.32 Q1760.33 1482.32 1762.62 1480.58 Q1764.94 1478.84 1764.94 1475.53 Q1764.94 1472.48 1762.79 1470.77 Q1760.66 1469.03 1756.84 1469.03 L1752.81 1469.03 L1752.81 1465.19 L1757.02 1465.19 Q1760.47 1465.19 1762.3 1463.82 Q1764.13 1462.43 1764.13 1459.84 Q1764.13 1457.18 1762.23 1455.77 Q1760.36 1454.33 1756.84 1454.33 Q1754.92 1454.33 1752.72 1454.75 Q1750.52 1455.16 1747.88 1456.04 L1747.88 1451.88 Q1750.54 1451.14 1752.86 1450.77 Q1755.19 1450.39 1757.25 1450.39 Q1762.58 1450.39 1765.68 1452.83 Q1768.78 1455.23 1768.78 1459.35 Q1768.78 1462.22 1767.14 1464.21 Q1765.49 1466.18 1762.46 1466.95 Z" fill="#000000" fill-rule="nonzero" fill-opacity="1"></path><path clip-path="url(#clip380)" d="M1788.46 1454.1 Q1784.85 1454.1 1783.02 1457.66 Q1781.21 1461.2 1781.21 1468.33 Q1781.21 1475.44 1783.02 1479.01 Q1784.85 1482.55 1788.46 1482.55 Q1792.09 1482.55 1793.9 1479.01 Q1795.73 1475.44 1795.73 1468.33 Q1795.73 1461.2 1793.9 1457.66 Q1792.09 1454.1 1788.46 1454.1 M1788.46 1450.39 Q1794.27 1450.39 1797.32 1455 Q1800.4 1459.58 1800.4 1468.33 Q1800.4 1477.06 1797.32 1481.67 Q1794.27 1486.25 1788.46 1486.25 Q1782.65 1486.25 1779.57 1481.67 Q1776.51 1477.06 1776.51 1468.33 Q1776.51 1459.58 1779.57 1455 Q1782.65 1450.39 1788.46 1450.39 Z" fill="#000000" fill-rule="nonzero" fill-opacity="1"></path><path clip-path="url(#clip380)" d="M1818.62 1454.1 Q1815.01 1454.1 1813.18 1457.66 Q1811.37 1461.2 1811.37 1468.33 Q1811.37 1475.44 1813.18 1479.01 Q1815.01 1482.55 1818.62 1482.55 Q1822.25 1482.55 1824.06 1479.01 Q1825.89 1475.44 1825.89 1468.33 Q1825.89 1461.2 1824.06 1457.66 Q1822.25 1454.1 1818.62 1454.1 M1818.62 1450.39 Q1824.43 1450.39 1827.48 1455 Q1830.56 1459.58 1830.56 1468.33 Q1830.56 1477.06 1827.48 1481.67 Q1824.43 1486.25 1818.62 1486.25 Q1812.81 1486.25 1809.73 1481.67 Q1806.67 1477.06 1806.67 1468.33 Q1806.67 1459.58 1809.73 1455 Q1812.81 1450.39 1818.62 1450.39 Z" fill="#000000" fill-rule="nonzero" fill-opacity="1"></path><path clip-path="url(#clip380)" d="M1848.78 1454.1 Q1845.17 1454.1 1843.34 1457.66 Q1841.54 1461.2 1841.54 1468.33 Q1841.54 1475.44 1843.34 1479.01 Q1845.17 1482.55 1848.78 1482.55 Q1852.42 1482.55 1854.22 1479.01 Q1856.05 1475.44 1856.05 1468.33 Q1856.05 1461.2 1854.22 1457.66 Q1852.42 1454.1 1848.78 1454.1 M1848.78 1450.39 Q1854.59 1450.39 1857.65 1455 Q1860.73 1459.58 1860.73 1468.33 Q1860.73 1477.06 1857.65 1481.67 Q1854.59 1486.25 1848.78 1486.25 Q1842.97 1486.25 1839.89 1481.67 Q1836.84 1477.06 1836.84 1468.33 Q1836.84 1459.58 1839.89 1455 Q1842.97 1450.39 1848.78 1450.39 Z" fill="#000000" fill-rule="nonzero" fill-opacity="1"></path><path clip-path="url(#clip380)" d="M2284.62 1455.09 L2272.82 1473.54 L2284.62 1473.54 L2284.62 1455.09 M2283.4 1451.02 L2289.28 1451.02 L2289.28 1473.54 L2294.21 1473.54 L2294.21 1477.43 L2289.28 1477.43 L2289.28 1485.58 L2284.62 1485.58 L2284.62 1477.43 L2269.02 1477.43 L2269.02 1472.92 L2283.4 1451.02 Z" fill="#000000" fill-rule="nonzero" fill-opacity="1"></path><path clip-path="url(#clip380)" d="M2311.94 1454.1 Q2308.33 1454.1 2306.5 1457.66 Q2304.69 1461.2 2304.69 1468.33 Q2304.69 1475.44 2306.5 1479.01 Q2308.33 1482.55 2311.94 1482.55 Q2315.57 1482.55 2317.38 1479.01 Q2319.21 1475.44 2319.21 1468.33 Q2319.21 1461.2 2317.38 1457.66 Q2315.57 1454.1 2311.94 1454.1 M2311.94 1450.39 Q2317.75 1450.39 2320.8 1455 Q2323.88 1459.58 2323.88 1468.33 Q2323.88 1477.06 2320.8 1481.67 Q2317.75 1486.25 2311.94 1486.25 Q2306.13 1486.25 2303.05 1481.67 Q2299.99 1477.06 2299.99 1468.33 Q2299.99 1459.58 2303.05 1455 Q2306.13 1450.39 2311.94 1450.39 Z" fill="#000000" fill-rule="nonzero" fill-opacity="1"></path><path clip-path="url(#clip380)" d="M2342.1 1454.1 Q2338.49 1454.1 2336.66 1457.66 Q2334.85 1461.2 2334.85 1468.33 Q2334.85 1475.44 2336.66 1479.01 Q2338.49 1482.55 2342.1 1482.55 Q2345.73 1482.55 2347.54 1479.01 Q2349.37 1475.44 2349.37 1468.33 Q2349.37 1461.2 2347.54 1457.66 Q2345.73 1454.1 2342.1 1454.1 M2342.1 1450.39 Q2347.91 1450.39 2350.97 1455 Q2354.04 1459.58 2354.04 1468.33 Q2354.04 1477.06 2350.97 1481.67 Q2347.91 1486.25 2342.1 1486.25 Q2336.29 1486.25 2333.21 1481.67 Q2330.16 1477.06 2330.16 1468.33 Q2330.16 1459.58 2333.21 1455 Q2336.29 1450.39 2342.1 1450.39 Z" fill="#000000" fill-rule="nonzero" fill-opacity="1"></path><path clip-path="url(#clip380)" d="M2372.26 1454.1 Q2368.65 1454.1 2366.82 1457.66 Q2365.02 1461.2 2365.02 1468.33 Q2365.02 1475.44 2366.82 1479.01 Q2368.65 1482.55 2372.26 1482.55 Q2375.9 1482.55 2377.7 1479.01 Q2379.53 1475.44 2379.53 1468.33 Q2379.53 1461.2 2377.7 1457.66 Q2375.9 1454.1 2372.26 1454.1 M2372.26 1450.39 Q2378.07 1450.39 2381.13 1455 Q2384.21 1459.58 2384.21 1468.33 Q2384.21 1477.06 2381.13 1481.67 Q2378.07 1486.25 2372.26 1486.25 Q2366.45 1486.25 2363.37 1481.67 Q2360.32 1477.06 2360.32 1468.33 Q2360.32 1459.58 2363.37 1455 Q2366.45 1450.39 2372.26 1450.39 Z" fill="#000000" fill-rule="nonzero" fill-opacity="1"></path><path clip-path="url(#clip380)" d="M1164.19 1520.52 L1204.39 1520.52 L1204.39 1525.93 L1187.52 1525.93 L1187.52 1568.04 L1181.06 1568.04 L1181.06 1525.93 L1164.19 1525.93 L1164.19 1520.52 Z" fill="#000000" fill-rule="nonzero" fill-opacity="1"></path><path clip-path="url(#clip380)" d="M1208.34 1532.4 L1214.19 1532.4 L1214.19 1568.04 L1208.34 1568.04 L1208.34 1532.4 M1208.34 1518.52 L1214.19 1518.52 L1214.19 1525.93 L1208.34 1525.93 L1208.34 1518.52 Z" fill="#000000" fill-rule="nonzero" fill-opacity="1"></path><path clip-path="url(#clip380)" d="M1254.2 1539.24 Q1256.4 1535.29 1259.45 1533.41 Q1262.51 1531.54 1266.65 1531.54 Q1272.22 1531.54 1275.24 1535.45 Q1278.26 1539.33 1278.26 1546.53 L1278.26 1568.04 L1272.38 1568.04 L1272.38 1546.72 Q1272.38 1541.59 1270.56 1539.11 Q1268.75 1536.63 1265.02 1536.63 Q1260.47 1536.63 1257.83 1539.65 Q1255.19 1542.68 1255.19 1547.9 L1255.19 1568.04 L1249.3 1568.04 L1249.3 1546.72 Q1249.3 1541.56 1247.49 1539.11 Q1245.67 1536.63 1241.88 1536.63 Q1237.4 1536.63 1234.75 1539.68 Q1232.11 1542.71 1232.11 1547.9 L1232.11 1568.04 L1226.22 1568.04 L1226.22 1532.4 L1232.11 1532.4 L1232.11 1537.93 Q1234.12 1534.66 1236.92 1533.1 Q1239.72 1531.54 1243.57 1531.54 Q1247.45 1531.54 1250.16 1533.51 Q1252.9 1535.48 1254.2 1539.24 Z" fill="#000000" fill-rule="nonzero" fill-opacity="1"></path><path clip-path="url(#clip380)" d="M1320.44 1548.76 L1320.44 1551.62 L1293.51 1551.62 Q1293.89 1557.67 1297.14 1560.85 Q1300.42 1564 1306.24 1564 Q1309.62 1564 1312.77 1563.17 Q1315.95 1562.35 1319.07 1560.69 L1319.07 1566.23 Q1315.92 1567.57 1312.61 1568.27 Q1309.3 1568.97 1305.89 1568.97 Q1297.36 1568.97 1292.36 1564 Q1287.4 1559.04 1287.4 1550.57 Q1287.4 1541.82 1292.11 1536.69 Q1296.85 1531.54 1304.87 1531.54 Q1312.07 1531.54 1316.24 1536.18 Q1320.44 1540.8 1320.44 1548.76 M1314.58 1547.04 Q1314.52 1542.23 1311.88 1539.37 Q1309.27 1536.5 1304.94 1536.5 Q1300.03 1536.5 1297.07 1539.27 Q1294.15 1542.04 1293.7 1547.07 L1314.58 1547.04 Z" fill="#000000" fill-rule="nonzero" fill-opacity="1"></path><path clip-path="url(#clip380)" d="M1364.84 1518.58 Q1360.57 1525.9 1358.5 1533.06 Q1356.44 1540.23 1356.44 1547.58 Q1356.44 1554.93 1358.5 1562.16 Q1360.6 1569.35 1364.84 1576.64 L1359.75 1576.64 Q1354.97 1569.16 1352.58 1561.93 Q1350.23 1554.71 1350.23 1547.58 Q1350.23 1540.48 1352.58 1533.29 Q1354.94 1526.09 1359.75 1518.58 L1364.84 1518.58 Z" fill="#000000" fill-rule="nonzero" fill-opacity="1"></path><path clip-path="url(#clip380)" d="M1398.93 1533.45 L1398.93 1538.98 Q1396.44 1537.71 1393.77 1537.07 Q1391.1 1536.44 1388.23 1536.44 Q1383.87 1536.44 1381.68 1537.77 Q1379.51 1539.11 1379.51 1541.79 Q1379.51 1543.82 1381.07 1545 Q1382.63 1546.15 1387.34 1547.2 L1389.35 1547.64 Q1395.58 1548.98 1398.19 1551.43 Q1400.84 1553.85 1400.84 1558.21 Q1400.84 1563.17 1396.89 1566.07 Q1392.97 1568.97 1386.1 1568.97 Q1383.23 1568.97 1380.12 1568.39 Q1377.03 1567.85 1373.59 1566.74 L1373.59 1560.69 Q1376.84 1562.38 1379.99 1563.24 Q1383.14 1564.07 1386.23 1564.07 Q1390.36 1564.07 1392.59 1562.66 Q1394.82 1561.23 1394.82 1558.65 Q1394.82 1556.27 1393.2 1554.99 Q1391.61 1553.72 1386.16 1552.54 L1384.13 1552.07 Q1378.68 1550.92 1376.26 1548.56 Q1373.85 1546.18 1373.85 1542.04 Q1373.85 1537.01 1377.41 1534.27 Q1380.97 1531.54 1387.53 1531.54 Q1390.78 1531.54 1393.64 1532.01 Q1396.51 1532.49 1398.93 1533.45 Z" fill="#000000" fill-rule="nonzero" fill-opacity="1"></path><path clip-path="url(#clip380)" d="M1409.24 1518.58 L1414.33 1518.58 Q1419.11 1526.09 1421.46 1533.29 Q1423.85 1540.48 1423.85 1547.58 Q1423.85 1554.71 1421.46 1561.93 Q1419.11 1569.16 1414.33 1576.64 L1409.24 1576.64 Q1413.47 1569.35 1415.54 1562.16 Q1417.64 1554.93 1417.64 1547.58 Q1417.64 1540.23 1415.54 1533.06 Q1413.47 1525.9 1409.24 1518.58 Z" fill="#000000" fill-rule="nonzero" fill-opacity="1"></path><polyline clip-path="url(#clip382)" style="stroke:#000000; stroke-linecap:round; stroke-linejoin:round; stroke-width:2; stroke-opacity:0.1; fill:none" points="235.283,1361.21 2352.76,1361.21 "></polyline>
<polyline clip-path="url(#clip382)" style="stroke:#000000; stroke-linecap:round; stroke-linejoin:round; stroke-width:2; stroke-opacity:0.1; fill:none" points="235.283,1138.48 2352.76,1138.48 "></polyline>
<polyline clip-path="url(#clip382)" style="stroke:#000000; stroke-linecap:round; stroke-linejoin:round; stroke-width:2; stroke-opacity:0.1; fill:none" points="235.283,915.749 2352.76,915.749 "></polyline>
<polyline clip-path="url(#clip382)" style="stroke:#000000; stroke-linecap:round; stroke-linejoin:round; stroke-width:2; stroke-opacity:0.1; fill:none" points="235.283,693.016 2352.76,693.016 "></polyline>
<polyline clip-path="url(#clip382)" style="stroke:#000000; stroke-linecap:round; stroke-linejoin:round; stroke-width:2; stroke-opacity:0.1; fill:none" points="235.283,470.284 2352.76,470.284 "></polyline>
<polyline clip-path="url(#clip382)" style="stroke:#000000; stroke-linecap:round; stroke-linejoin:round; stroke-width:2; stroke-opacity:0.1; fill:none" points="235.283,247.552 2352.76,247.552 "></polyline>
<polyline clip-path="url(#clip380)" style="stroke:#000000; stroke-linecap:round; stroke-linejoin:round; stroke-width:4; stroke-opacity:1; fill:none" points="235.283,1423.18 235.283,123.472 "></polyline>
<polyline clip-path="url(#clip380)" style="stroke:#000000; stroke-linecap:round; stroke-linejoin:round; stroke-width:4; stroke-opacity:1; fill:none" points="235.283,1361.21 254.18,1361.21 "></polyline>
<polyline clip-path="url(#clip380)" style="stroke:#000000; stroke-linecap:round; stroke-linejoin:round; stroke-width:4; stroke-opacity:1; fill:none" points="235.283,1138.48 254.18,1138.48 "></polyline>
<polyline clip-path="url(#clip380)" style="stroke:#000000; stroke-linecap:round; stroke-linejoin:round; stroke-width:4; stroke-opacity:1; fill:none" points="235.283,915.749 254.18,915.749 "></polyline>
<polyline clip-path="url(#clip380)" style="stroke:#000000; stroke-linecap:round; stroke-linejoin:round; stroke-width:4; stroke-opacity:1; fill:none" points="235.283,693.016 254.18,693.016 "></polyline>
<polyline clip-path="url(#clip380)" style="stroke:#000000; stroke-linecap:round; stroke-linejoin:round; stroke-width:4; stroke-opacity:1; fill:none" points="235.283,470.284 254.18,470.284 "></polyline>
<polyline clip-path="url(#clip380)" style="stroke:#000000; stroke-linecap:round; stroke-linejoin:round; stroke-width:4; stroke-opacity:1; fill:none" points="235.283,247.552 254.18,247.552 "></polyline>
<path clip-path="url(#clip380)" d="M131.181 1359.86 Q134.538 1360.58 136.413 1362.85 Q138.311 1365.11 138.311 1368.45 Q138.311 1373.56 134.792 1376.36 Q131.274 1379.16 124.793 1379.16 Q122.617 1379.16 120.302 1378.73 Q118.01 1378.31 115.556 1377.45 L115.556 1372.94 Q117.501 1374.07 119.816 1374.65 Q122.13 1375.23 124.654 1375.23 Q129.052 1375.23 131.343 1373.49 Q133.658 1371.76 133.658 1368.45 Q133.658 1365.39 131.505 1363.68 Q129.376 1361.94 125.556 1361.94 L121.529 1361.94 L121.529 1358.1 L125.742 1358.1 Q129.191 1358.1 131.019 1356.73 Q132.848 1355.35 132.848 1352.75 Q132.848 1350.09 130.95 1348.68 Q129.075 1347.24 125.556 1347.24 Q123.635 1347.24 121.436 1347.66 Q119.237 1348.08 116.598 1348.96 L116.598 1344.79 Q119.26 1344.05 121.575 1343.68 Q123.913 1343.31 125.973 1343.31 Q131.297 1343.31 134.399 1345.74 Q137.501 1348.15 137.501 1352.27 Q137.501 1355.14 135.857 1357.13 Q134.214 1359.1 131.181 1359.86 Z" fill="#000000" fill-rule="nonzero" fill-opacity="1"></path><path clip-path="url(#clip380)" d="M157.177 1347.01 Q153.566 1347.01 151.737 1350.58 Q149.931 1354.12 149.931 1361.25 Q149.931 1368.35 151.737 1371.92 Q153.566 1375.46 157.177 1375.46 Q160.811 1375.46 162.616 1371.92 Q164.445 1368.35 164.445 1361.25 Q164.445 1354.12 162.616 1350.58 Q160.811 1347.01 157.177 1347.01 M157.177 1343.31 Q162.987 1343.31 166.042 1347.91 Q169.121 1352.5 169.121 1361.25 Q169.121 1369.98 166.042 1374.58 Q162.987 1379.16 157.177 1379.16 Q151.366 1379.16 148.288 1374.58 Q145.232 1369.98 145.232 1361.25 Q145.232 1352.5 148.288 1347.91 Q151.366 1343.31 157.177 1343.31 Z" fill="#000000" fill-rule="nonzero" fill-opacity="1"></path><path clip-path="url(#clip380)" d="M187.338 1347.01 Q183.727 1347.01 181.899 1350.58 Q180.093 1354.12 180.093 1361.25 Q180.093 1368.35 181.899 1371.92 Q183.727 1375.46 187.338 1375.46 Q190.973 1375.46 192.778 1371.92 Q194.607 1368.35 194.607 1361.25 Q194.607 1354.12 192.778 1350.58 Q190.973 1347.01 187.338 1347.01 M187.338 1343.31 Q193.149 1343.31 196.204 1347.91 Q199.283 1352.5 199.283 1361.25 Q199.283 1369.98 196.204 1374.58 Q193.149 1379.16 187.338 1379.16 Q181.528 1379.16 178.45 1374.58 Q175.394 1369.98 175.394 1361.25 Q175.394 1352.5 178.45 1347.91 Q181.528 1343.31 187.338 1343.31 Z" fill="#000000" fill-rule="nonzero" fill-opacity="1"></path><path clip-path="url(#clip380)" d="M131.181 1137.13 Q134.538 1137.84 136.413 1140.11 Q138.311 1142.38 138.311 1145.71 Q138.311 1150.83 134.792 1153.63 Q131.274 1156.43 124.793 1156.43 Q122.617 1156.43 120.302 1155.99 Q118.01 1155.58 115.556 1154.72 L115.556 1150.21 Q117.501 1151.34 119.816 1151.92 Q122.13 1152.5 124.654 1152.5 Q129.052 1152.5 131.343 1150.76 Q133.658 1149.03 133.658 1145.71 Q133.658 1142.66 131.505 1140.95 Q129.376 1139.21 125.556 1139.21 L121.529 1139.21 L121.529 1135.37 L125.742 1135.37 Q129.191 1135.37 131.019 1134 Q132.848 1132.61 132.848 1130.02 Q132.848 1127.36 130.95 1125.95 Q129.075 1124.51 125.556 1124.51 Q123.635 1124.51 121.436 1124.93 Q119.237 1125.34 116.598 1126.22 L116.598 1122.06 Q119.26 1121.32 121.575 1120.95 Q123.913 1120.58 125.973 1120.58 Q131.297 1120.58 134.399 1123.01 Q137.501 1125.41 137.501 1129.53 Q137.501 1132.4 135.857 1134.4 Q134.214 1136.36 131.181 1137.13 Z" fill="#000000" fill-rule="nonzero" fill-opacity="1"></path><path clip-path="url(#clip380)" d="M147.223 1121.2 L165.579 1121.2 L165.579 1125.14 L151.505 1125.14 L151.505 1133.61 Q152.524 1133.26 153.542 1133.1 Q154.561 1132.91 155.579 1132.91 Q161.366 1132.91 164.746 1136.09 Q168.126 1139.26 168.126 1144.67 Q168.126 1150.25 164.653 1153.35 Q161.181 1156.43 154.862 1156.43 Q152.686 1156.43 150.417 1156.06 Q148.172 1155.69 145.765 1154.95 L145.765 1150.25 Q147.848 1151.39 150.07 1151.94 Q152.292 1152.5 154.769 1152.5 Q158.774 1152.5 161.112 1150.39 Q163.45 1148.28 163.45 1144.67 Q163.45 1141.06 161.112 1138.96 Q158.774 1136.85 154.769 1136.85 Q152.894 1136.85 151.019 1137.27 Q149.167 1137.68 147.223 1138.56 L147.223 1121.2 Z" fill="#000000" fill-rule="nonzero" fill-opacity="1"></path><path clip-path="url(#clip380)" d="M187.338 1124.28 Q183.727 1124.28 181.899 1127.84 Q180.093 1131.39 180.093 1138.52 Q180.093 1145.62 181.899 1149.19 Q183.727 1152.73 187.338 1152.73 Q190.973 1152.73 192.778 1149.19 Q194.607 1145.62 194.607 1138.52 Q194.607 1131.39 192.778 1127.84 Q190.973 1124.28 187.338 1124.28 M187.338 1120.58 Q193.149 1120.58 196.204 1125.18 Q199.283 1129.77 199.283 1138.52 Q199.283 1147.24 196.204 1151.85 Q193.149 1156.43 187.338 1156.43 Q181.528 1156.43 178.45 1151.85 Q175.394 1147.24 175.394 1138.52 Q175.394 1129.77 178.45 1125.18 Q181.528 1120.58 187.338 1120.58 Z" fill="#000000" fill-rule="nonzero" fill-opacity="1"></path><path clip-path="url(#clip380)" d="M129.862 902.543 L118.056 920.992 L129.862 920.992 L129.862 902.543 M128.635 898.469 L134.515 898.469 L134.515 920.992 L139.445 920.992 L139.445 924.881 L134.515 924.881 L134.515 933.029 L129.862 933.029 L129.862 924.881 L114.26 924.881 L114.26 920.367 L128.635 898.469 Z" fill="#000000" fill-rule="nonzero" fill-opacity="1"></path><path clip-path="url(#clip380)" d="M157.177 901.547 Q153.566 901.547 151.737 905.112 Q149.931 908.654 149.931 915.783 Q149.931 922.89 151.737 926.455 Q153.566 929.996 157.177 929.996 Q160.811 929.996 162.616 926.455 Q164.445 922.89 164.445 915.783 Q164.445 908.654 162.616 905.112 Q160.811 901.547 157.177 901.547 M157.177 897.844 Q162.987 897.844 166.042 902.45 Q169.121 907.034 169.121 915.783 Q169.121 924.51 166.042 929.117 Q162.987 933.7 157.177 933.7 Q151.366 933.7 148.288 929.117 Q145.232 924.51 145.232 915.783 Q145.232 907.034 148.288 902.45 Q151.366 897.844 157.177 897.844 Z" fill="#000000" fill-rule="nonzero" fill-opacity="1"></path><path clip-path="url(#clip380)" d="M187.338 901.547 Q183.727 901.547 181.899 905.112 Q180.093 908.654 180.093 915.783 Q180.093 922.89 181.899 926.455 Q183.727 929.996 187.338 929.996 Q190.973 929.996 192.778 926.455 Q194.607 922.89 194.607 915.783 Q194.607 908.654 192.778 905.112 Q190.973 901.547 187.338 901.547 M187.338 897.844 Q193.149 897.844 196.204 902.45 Q199.283 907.034 199.283 915.783 Q199.283 924.51 196.204 929.117 Q193.149 933.7 187.338 933.7 Q181.528 933.7 178.45 929.117 Q175.394 924.51 175.394 915.783 Q175.394 907.034 178.45 902.45 Q181.528 897.844 187.338 897.844 Z" fill="#000000" fill-rule="nonzero" fill-opacity="1"></path><path clip-path="url(#clip380)" d="M129.862 679.81 L118.056 698.259 L129.862 698.259 L129.862 679.81 M128.635 675.736 L134.515 675.736 L134.515 698.259 L139.445 698.259 L139.445 702.148 L134.515 702.148 L134.515 710.296 L129.862 710.296 L129.862 702.148 L114.26 702.148 L114.26 697.634 L128.635 675.736 Z" fill="#000000" fill-rule="nonzero" fill-opacity="1"></path><path clip-path="url(#clip380)" d="M147.223 675.736 L165.579 675.736 L165.579 679.672 L151.505 679.672 L151.505 688.144 Q152.524 687.796 153.542 687.634 Q154.561 687.449 155.579 687.449 Q161.366 687.449 164.746 690.621 Q168.126 693.792 168.126 699.208 Q168.126 704.787 164.653 707.889 Q161.181 710.968 154.862 710.968 Q152.686 710.968 150.417 710.597 Q148.172 710.227 145.765 709.486 L145.765 704.787 Q147.848 705.921 150.07 706.477 Q152.292 707.032 154.769 707.032 Q158.774 707.032 161.112 704.926 Q163.45 702.82 163.45 699.208 Q163.45 695.597 161.112 693.491 Q158.774 691.384 154.769 691.384 Q152.894 691.384 151.019 691.801 Q149.167 692.218 147.223 693.097 L147.223 675.736 Z" fill="#000000" fill-rule="nonzero" fill-opacity="1"></path><path clip-path="url(#clip380)" d="M187.338 678.815 Q183.727 678.815 181.899 682.38 Q180.093 685.921 180.093 693.051 Q180.093 700.158 181.899 703.722 Q183.727 707.264 187.338 707.264 Q190.973 707.264 192.778 703.722 Q194.607 700.158 194.607 693.051 Q194.607 685.921 192.778 682.38 Q190.973 678.815 187.338 678.815 M187.338 675.111 Q193.149 675.111 196.204 679.718 Q199.283 684.301 199.283 693.051 Q199.283 701.778 196.204 706.384 Q193.149 710.968 187.338 710.968 Q181.528 710.968 178.45 706.384 Q175.394 701.778 175.394 693.051 Q175.394 684.301 178.45 679.718 Q181.528 675.111 187.338 675.111 Z" fill="#000000" fill-rule="nonzero" fill-opacity="1"></path><path clip-path="url(#clip380)" d="M117.061 453.004 L135.417 453.004 L135.417 456.939 L121.343 456.939 L121.343 465.411 Q122.362 465.064 123.38 464.902 Q124.399 464.717 125.418 464.717 Q131.205 464.717 134.584 467.888 Q137.964 471.059 137.964 476.476 Q137.964 482.055 134.492 485.157 Q131.019 488.235 124.7 488.235 Q122.524 488.235 120.255 487.865 Q118.01 487.495 115.603 486.754 L115.603 482.055 Q117.686 483.189 119.908 483.745 Q122.13 484.3 124.607 484.3 Q128.612 484.3 130.95 482.194 Q133.288 480.087 133.288 476.476 Q133.288 472.865 130.95 470.758 Q128.612 468.652 124.607 468.652 Q122.732 468.652 120.857 469.069 Q119.006 469.485 117.061 470.365 L117.061 453.004 Z" fill="#000000" fill-rule="nonzero" fill-opacity="1"></path><path clip-path="url(#clip380)" d="M157.177 456.083 Q153.566 456.083 151.737 459.647 Q149.931 463.189 149.931 470.319 Q149.931 477.425 151.737 480.99 Q153.566 484.532 157.177 484.532 Q160.811 484.532 162.616 480.99 Q164.445 477.425 164.445 470.319 Q164.445 463.189 162.616 459.647 Q160.811 456.083 157.177 456.083 M157.177 452.379 Q162.987 452.379 166.042 456.985 Q169.121 461.569 169.121 470.319 Q169.121 479.045 166.042 483.652 Q162.987 488.235 157.177 488.235 Q151.366 488.235 148.288 483.652 Q145.232 479.045 145.232 470.319 Q145.232 461.569 148.288 456.985 Q151.366 452.379 157.177 452.379 Z" fill="#000000" fill-rule="nonzero" fill-opacity="1"></path><path clip-path="url(#clip380)" d="M187.338 456.083 Q183.727 456.083 181.899 459.647 Q180.093 463.189 180.093 470.319 Q180.093 477.425 181.899 480.99 Q183.727 484.532 187.338 484.532 Q190.973 484.532 192.778 480.99 Q194.607 477.425 194.607 470.319 Q194.607 463.189 192.778 459.647 Q190.973 456.083 187.338 456.083 M187.338 452.379 Q193.149 452.379 196.204 456.985 Q199.283 461.569 199.283 470.319 Q199.283 479.045 196.204 483.652 Q193.149 488.235 187.338 488.235 Q181.528 488.235 178.45 483.652 Q175.394 479.045 175.394 470.319 Q175.394 461.569 178.45 456.985 Q181.528 452.379 187.338 452.379 Z" fill="#000000" fill-rule="nonzero" fill-opacity="1"></path><path clip-path="url(#clip380)" d="M117.061 230.272 L135.417 230.272 L135.417 234.207 L121.343 234.207 L121.343 242.679 Q122.362 242.332 123.38 242.17 Q124.399 241.984 125.418 241.984 Q131.205 241.984 134.584 245.156 Q137.964 248.327 137.964 253.744 Q137.964 259.322 134.492 262.424 Q131.019 265.503 124.7 265.503 Q122.524 265.503 120.255 265.132 Q118.01 264.762 115.603 264.021 L115.603 259.322 Q117.686 260.457 119.908 261.012 Q122.13 261.568 124.607 261.568 Q128.612 261.568 130.95 259.461 Q133.288 257.355 133.288 253.744 Q133.288 250.133 130.95 248.026 Q128.612 245.92 124.607 245.92 Q122.732 245.92 120.857 246.336 Q119.006 246.753 117.061 247.633 L117.061 230.272 Z" fill="#000000" fill-rule="nonzero" fill-opacity="1"></path><path clip-path="url(#clip380)" d="M147.223 230.272 L165.579 230.272 L165.579 234.207 L151.505 234.207 L151.505 242.679 Q152.524 242.332 153.542 242.17 Q154.561 241.984 155.579 241.984 Q161.366 241.984 164.746 245.156 Q168.126 248.327 168.126 253.744 Q168.126 259.322 164.653 262.424 Q161.181 265.503 154.862 265.503 Q152.686 265.503 150.417 265.132 Q148.172 264.762 145.765 264.021 L145.765 259.322 Q147.848 260.457 150.07 261.012 Q152.292 261.568 154.769 261.568 Q158.774 261.568 161.112 259.461 Q163.45 257.355 163.45 253.744 Q163.45 250.133 161.112 248.026 Q158.774 245.92 154.769 245.92 Q152.894 245.92 151.019 246.336 Q149.167 246.753 147.223 247.633 L147.223 230.272 Z" fill="#000000" fill-rule="nonzero" fill-opacity="1"></path><path clip-path="url(#clip380)" d="M187.338 233.35 Q183.727 233.35 181.899 236.915 Q180.093 240.457 180.093 247.586 Q180.093 254.693 181.899 258.258 Q183.727 261.799 187.338 261.799 Q190.973 261.799 192.778 258.258 Q194.607 254.693 194.607 247.586 Q194.607 240.457 192.778 236.915 Q190.973 233.35 187.338 233.35 M187.338 229.647 Q193.149 229.647 196.204 234.253 Q199.283 238.836 199.283 247.586 Q199.283 256.313 196.204 260.92 Q193.149 265.503 187.338 265.503 Q181.528 265.503 178.45 260.92 Q175.394 256.313 175.394 247.586 Q175.394 238.836 178.45 234.253 Q181.528 229.647 187.338 229.647 Z" fill="#000000" fill-rule="nonzero" fill-opacity="1"></path><path clip-path="url(#clip380)" d="M16.4842 1034.24 L16.4842 994.041 L21.895 994.041 L21.895 1010.91 L64.0042 1010.91 L64.0042 1017.37 L21.895 1017.37 L21.895 1034.24 L16.4842 1034.24 Z" fill="#000000" fill-rule="nonzero" fill-opacity="1"></path><path clip-path="url(#clip380)" d="M44.7161 968.674 L47.5806 968.674 L47.5806 995.601 Q53.6281 995.219 56.8109 991.972 Q59.9619 988.694 59.9619 982.869 Q59.9619 979.495 59.1344 976.344 Q58.3069 973.161 56.6518 970.042 L62.1899 970.042 Q63.5267 973.193 64.227 976.503 Q64.9272 979.814 64.9272 983.219 Q64.9272 991.749 59.9619 996.746 Q54.9967 1001.71 46.5303 1001.71 Q37.7774 1001.71 32.6531 997.001 Q27.4968 992.259 27.4968 984.238 Q27.4968 977.045 32.1438 972.875 Q36.7589 968.674 44.7161 968.674 M42.9973 974.53 Q38.1912 974.594 35.3266 977.235 Q32.4621 979.845 32.4621 984.174 Q32.4621 989.076 35.2312 992.036 Q38.0002 994.964 43.0292 995.41 L42.9973 974.53 Z" fill="#000000" fill-rule="nonzero" fill-opacity="1"></path><path clip-path="url(#clip380)" d="M35.1993 931.307 Q31.2526 929.111 29.3747 926.055 Q27.4968 923 27.4968 918.862 Q27.4968 913.292 31.4117 910.268 Q35.2948 907.245 42.4881 907.245 L64.0042 907.245 L64.0042 913.133 L42.679 913.133 Q37.5546 913.133 35.072 914.947 Q32.5894 916.761 32.5894 920.485 Q32.5894 925.037 35.6131 927.678 Q38.6368 930.32 43.8567 930.32 L64.0042 930.32 L64.0042 936.209 L42.679 936.209 Q37.5228 936.209 35.072 938.023 Q32.5894 939.837 32.5894 943.625 Q32.5894 948.112 35.6449 950.754 Q38.6686 953.396 43.8567 953.396 L64.0042 953.396 L64.0042 959.284 L28.3562 959.284 L28.3562 953.396 L33.8944 953.396 Q30.616 951.391 29.0564 948.59 Q27.4968 945.789 27.4968 941.938 Q27.4968 938.055 29.4702 935.349 Q31.4436 932.612 35.1993 931.307 Z" fill="#000000" fill-rule="nonzero" fill-opacity="1"></path><path clip-path="url(#clip380)" d="M58.657 889.898 L77.5631 889.898 L77.5631 895.786 L28.3562 895.786 L28.3562 889.898 L33.7671 889.898 Q30.5842 888.052 29.0564 885.251 Q27.4968 882.418 27.4968 878.503 Q27.4968 872.01 32.6531 867.968 Q37.8093 863.894 46.212 863.894 Q54.6147 863.894 59.771 867.968 Q64.9272 872.01 64.9272 878.503 Q64.9272 882.418 63.3994 885.251 Q61.8398 888.052 58.657 889.898 M46.212 869.973 Q39.7508 869.973 36.0905 872.647 Q32.3984 875.289 32.3984 879.936 Q32.3984 884.583 36.0905 887.256 Q39.7508 889.898 46.212 889.898 Q52.6732 889.898 56.3653 887.256 Q60.0256 884.583 60.0256 879.936 Q60.0256 875.289 56.3653 872.647 Q52.6732 869.973 46.212 869.973 Z" fill="#000000" fill-rule="nonzero" fill-opacity="1"></path><path clip-path="url(#clip380)" d="M44.7161 823.695 L47.5806 823.695 L47.5806 850.622 Q53.6281 850.24 56.8109 846.993 Q59.9619 843.715 59.9619 837.89 Q59.9619 834.516 59.1344 831.365 Q58.3069 828.182 56.6518 825.063 L62.1899 825.063 Q63.5267 828.214 64.227 831.524 Q64.9272 834.835 64.9272 838.24 Q64.9272 846.77 59.9619 851.767 Q54.9967 856.733 46.5303 856.733 Q37.7774 856.733 32.6531 852.022 Q27.4968 847.28 27.4968 839.259 Q27.4968 832.066 32.1438 827.896 Q36.7589 823.695 44.7161 823.695 M42.9973 829.551 Q38.1912 829.615 35.3266 832.257 Q32.4621 834.866 32.4621 839.195 Q32.4621 844.097 35.2312 847.057 Q38.0002 849.985 43.0292 850.431 L42.9973 829.551 Z" fill="#000000" fill-rule="nonzero" fill-opacity="1"></path><path clip-path="url(#clip380)" d="M33.8307 793.426 Q33.2578 794.412 33.0032 795.59 Q32.7167 796.736 32.7167 798.136 Q32.7167 803.102 35.9632 805.775 Q39.1779 808.417 45.2253 808.417 L64.0042 808.417 L64.0042 814.305 L28.3562 814.305 L28.3562 808.417 L33.8944 808.417 Q30.6479 806.571 29.0883 803.611 Q27.4968 800.651 27.4968 796.418 Q27.4968 795.813 27.5923 795.081 Q27.656 794.349 27.8151 793.458 L33.8307 793.426 Z" fill="#000000" fill-rule="nonzero" fill-opacity="1"></path><path clip-path="url(#clip380)" d="M46.0847 771.082 Q46.0847 778.18 47.7079 780.917 Q49.3312 783.654 53.2461 783.654 Q56.3653 783.654 58.2114 781.617 Q60.0256 779.548 60.0256 776.015 Q60.0256 771.146 56.5881 768.218 Q53.1188 765.257 47.3897 765.257 L46.0847 765.257 L46.0847 771.082 M43.6657 759.401 L64.0042 759.401 L64.0042 765.257 L58.5933 765.257 Q61.8398 767.263 63.3994 770.255 Q64.9272 773.246 64.9272 777.575 Q64.9272 783.05 61.8716 786.296 Q58.7843 789.511 53.6281 789.511 Q47.6125 789.511 44.5569 785.5 Q41.5014 781.458 41.5014 773.469 L41.5014 765.257 L40.9285 765.257 Q36.8862 765.257 34.6901 767.931 Q32.4621 770.573 32.4621 775.379 Q32.4621 778.434 33.1941 781.331 Q33.9262 784.227 35.3903 786.901 L29.9795 786.901 Q28.7381 783.686 28.1334 780.662 Q27.4968 777.639 27.4968 774.774 Q27.4968 767.04 31.5072 763.22 Q35.5176 759.401 43.6657 759.401 Z" fill="#000000" fill-rule="nonzero" fill-opacity="1"></path><path clip-path="url(#clip380)" d="M18.2347 741.545 L28.3562 741.545 L28.3562 729.482 L32.9077 729.482 L32.9077 741.545 L52.2594 741.545 Q56.6199 741.545 57.8613 740.368 Q59.1026 739.158 59.1026 735.498 L59.1026 729.482 L64.0042 729.482 L64.0042 735.498 Q64.0042 742.277 61.4897 744.855 Q58.9434 747.433 52.2594 747.433 L32.9077 747.433 L32.9077 751.73 L28.3562 751.73 L28.3562 747.433 L18.2347 747.433 L18.2347 741.545 Z" fill="#000000" fill-rule="nonzero" fill-opacity="1"></path><path clip-path="url(#clip380)" d="M49.9359 722.384 L28.3562 722.384 L28.3562 716.528 L49.7131 716.528 Q54.7739 716.528 57.3202 714.555 Q59.8346 712.581 59.8346 708.634 Q59.8346 703.892 56.8109 701.155 Q53.7872 698.386 48.5673 698.386 L28.3562 698.386 L28.3562 692.529 L64.0042 692.529 L64.0042 698.386 L58.5296 698.386 Q61.7762 700.518 63.3676 703.351 Q64.9272 706.152 64.9272 709.876 Q64.9272 716.019 61.1078 719.202 Q57.2883 722.384 49.9359 722.384 M27.4968 707.648 L27.4968 707.648 Z" fill="#000000" fill-rule="nonzero" fill-opacity="1"></path><path clip-path="url(#clip380)" d="M33.8307 659.81 Q33.2578 660.796 33.0032 661.974 Q32.7167 663.12 32.7167 664.52 Q32.7167 669.485 35.9632 672.159 Q39.1779 674.801 45.2253 674.801 L64.0042 674.801 L64.0042 680.689 L28.3562 680.689 L28.3562 674.801 L33.8944 674.801 Q30.6479 672.955 29.0883 669.995 Q27.4968 667.035 27.4968 662.801 Q27.4968 662.197 27.5923 661.465 Q27.656 660.733 27.8151 659.841 L33.8307 659.81 Z" fill="#000000" fill-rule="nonzero" fill-opacity="1"></path><path clip-path="url(#clip380)" d="M44.7161 624.607 L47.5806 624.607 L47.5806 651.534 Q53.6281 651.152 56.8109 647.906 Q59.9619 644.627 59.9619 638.803 Q59.9619 635.429 59.1344 632.278 Q58.3069 629.095 56.6518 625.976 L62.1899 625.976 Q63.5267 629.127 64.227 632.437 Q64.9272 635.747 64.9272 639.153 Q64.9272 647.683 59.9619 652.68 Q54.9967 657.645 46.5303 657.645 Q37.7774 657.645 32.6531 652.935 Q27.4968 648.192 27.4968 640.171 Q27.4968 632.978 32.1438 628.809 Q36.7589 624.607 44.7161 624.607 M42.9973 630.464 Q38.1912 630.527 35.3266 633.169 Q32.4621 635.779 32.4621 640.108 Q32.4621 645.009 35.2312 647.969 Q38.0002 650.898 43.0292 651.343 L42.9973 630.464 Z" fill="#000000" fill-rule="nonzero" fill-opacity="1"></path><path clip-path="url(#clip380)" d="M14.5426 580.206 Q21.8632 584.471 29.0246 586.54 Q36.186 588.609 43.5384 588.609 Q50.8908 588.609 58.1159 586.54 Q65.3091 584.44 72.5979 580.206 L72.5979 585.299 Q65.1182 590.073 57.8931 592.46 Q50.668 594.816 43.5384 594.816 Q36.4406 594.816 29.2474 592.46 Q22.0542 590.105 14.5426 585.299 L14.5426 580.206 Z" fill="#000000" fill-rule="nonzero" fill-opacity="1"></path><path clip-path="url(#clip380)" d="M16.4842 568.589 L16.4842 562.16 L36.568 562.16 L16.4842 540.834 L16.4842 532.559 L38.6368 556.144 L64.0042 530.872 L64.0042 539.339 L41.1194 562.16 L64.0042 562.16 L64.0042 568.589 L16.4842 568.589 Z" fill="#000000" fill-rule="nonzero" fill-opacity="1"></path><path clip-path="url(#clip380)" d="M14.5426 527.021 L14.5426 521.928 Q22.0542 517.154 29.2474 514.799 Q36.4406 512.412 43.5384 512.412 Q50.668 512.412 57.8931 514.799 Q65.1182 517.154 72.5979 521.928 L72.5979 527.021 Q65.3091 522.788 58.1159 520.719 Q50.8908 518.618 43.5384 518.618 Q36.186 518.618 29.0246 520.719 Q21.8632 522.788 14.5426 527.021 Z" fill="#000000" fill-rule="nonzero" fill-opacity="1"></path><path clip-path="url(#clip380)" d="M638.522 63.9476 L638.522 47.7034 L625.154 47.7034 L625.154 40.9789 L646.624 40.9789 L646.624 66.9452 Q641.885 70.3075 636.173 72.0494 Q630.461 73.7508 623.98 73.7508 Q609.801 73.7508 601.781 65.4869 Q593.8 57.1826 593.8 42.3968 Q593.8 27.5705 601.781 19.3066 Q609.801 11.0023 623.98 11.0023 Q629.894 11.0023 635.201 12.4606 Q640.548 13.9189 645.044 16.7545 L645.044 25.464 Q640.507 21.6156 635.403 19.6712 Q630.299 17.7268 624.668 17.7268 Q613.569 17.7268 607.978 23.9246 Q602.429 30.1225 602.429 42.3968 Q602.429 54.6305 607.978 60.8284 Q613.569 67.0263 624.668 67.0263 Q629.003 67.0263 632.405 66.2971 Q635.808 65.5274 638.522 63.9476 Z" fill="#000000" fill-rule="nonzero" fill-opacity="1"></path><path clip-path="url(#clip380)" d="M681.867 49.7694 Q672.833 49.7694 669.35 51.8354 Q665.866 53.9013 665.866 58.8839 Q665.866 62.8538 668.458 65.2034 Q671.092 67.5124 675.588 67.5124 Q681.786 67.5124 685.513 63.1374 Q689.28 58.7219 689.28 51.4303 L689.28 49.7694 L681.867 49.7694 M696.734 46.6907 L696.734 72.576 L689.28 72.576 L689.28 65.6895 Q686.728 69.8214 682.92 71.8063 Q679.112 73.7508 673.603 73.7508 Q666.636 73.7508 662.504 69.8619 Q658.412 65.9325 658.412 59.3701 Q658.412 51.7138 663.516 47.825 Q668.661 43.9361 678.829 43.9361 L689.28 43.9361 L689.28 43.2069 Q689.28 38.0623 685.877 35.2672 Q682.515 32.4315 676.398 32.4315 Q672.509 32.4315 668.823 33.3632 Q665.137 34.295 661.734 36.1584 L661.734 29.2718 Q665.825 27.692 669.674 26.9223 Q673.522 26.1121 677.168 26.1121 Q687.012 26.1121 691.873 31.2163 Q696.734 36.3204 696.734 46.6907 Z" fill="#000000" fill-rule="nonzero" fill-opacity="1"></path><path clip-path="url(#clip380)" d="M741.01 28.5427 L741.01 35.5912 Q737.85 33.9709 734.448 33.1607 Q731.045 32.3505 727.399 32.3505 Q721.849 32.3505 719.054 34.0519 Q716.3 35.7533 716.3 39.156 Q716.3 41.7486 718.285 43.2475 Q720.27 44.7058 726.265 46.0426 L728.817 46.6097 Q736.757 48.3111 740.078 51.4303 Q743.441 54.509 743.441 60.0587 Q743.441 66.3781 738.418 70.0644 Q733.435 73.7508 724.685 73.7508 Q721.039 73.7508 717.069 73.0216 Q713.14 72.3329 708.765 70.9151 L708.765 63.2184 Q712.897 65.3654 716.907 66.4591 Q720.918 67.5124 724.847 67.5124 Q730.113 67.5124 732.949 65.73 Q735.785 63.9071 735.785 60.6258 Q735.785 57.5877 733.719 55.9673 Q731.693 54.3469 724.766 52.8481 L722.173 52.2405 Q715.246 50.7821 712.168 47.7845 Q709.089 44.7463 709.089 39.4801 Q709.089 33.0797 713.626 29.5959 Q718.163 26.1121 726.508 26.1121 Q730.64 26.1121 734.286 26.7198 Q737.932 27.3274 741.01 28.5427 Z" fill="#000000" fill-rule="nonzero" fill-opacity="1"></path><path clip-path="url(#clip380)" d="M773.62 12.096 L824.783 12.096 L824.783 18.9825 L803.313 18.9825 L803.313 72.576 L795.09 72.576 L795.09 18.9825 L773.62 18.9825 L773.62 12.096 Z" fill="#000000" fill-rule="nonzero" fill-opacity="1"></path><path clip-path="url(#clip380)" d="M857.069 48.0275 L857.069 51.6733 L822.798 51.6733 Q823.284 59.3701 827.416 63.421 Q831.588 67.4314 839.002 67.4314 Q843.296 67.4314 847.306 66.3781 Q851.357 65.3249 855.327 63.2184 L855.327 70.267 Q851.316 71.9684 847.103 72.8596 Q842.89 73.7508 838.556 73.7508 Q827.7 73.7508 821.34 67.4314 Q815.02 61.1119 815.02 50.3365 Q815.02 39.1965 821.016 32.6746 Q827.051 26.1121 837.26 26.1121 Q846.415 26.1121 851.721 32.0264 Q857.069 37.9003 857.069 48.0275 M849.615 45.84 Q849.534 39.7232 846.172 36.0774 Q842.85 32.4315 837.341 32.4315 Q831.102 32.4315 827.335 35.9558 Q823.608 39.4801 823.041 45.8805 L849.615 45.84 Z" fill="#000000" fill-rule="nonzero" fill-opacity="1"></path><path clip-path="url(#clip380)" d="M904.626 35.9153 Q907.421 30.8922 911.31 28.5022 Q915.199 26.1121 920.465 26.1121 Q927.554 26.1121 931.403 31.0947 Q935.251 36.0368 935.251 45.1919 L935.251 72.576 L927.757 72.576 L927.757 45.4349 Q927.757 38.913 925.448 35.7533 Q923.139 32.5936 918.399 32.5936 Q912.606 32.5936 909.244 36.4419 Q905.882 40.2903 905.882 46.9338 L905.882 72.576 L898.388 72.576 L898.388 45.4349 Q898.388 38.8725 896.079 35.7533 Q893.77 32.5936 888.949 32.5936 Q883.237 32.5936 879.875 36.4824 Q876.513 40.3308 876.513 46.9338 L876.513 72.576 L869.019 72.576 L869.019 27.2059 L876.513 27.2059 L876.513 34.2544 Q879.065 30.082 882.63 28.0971 Q886.195 26.1121 891.096 26.1121 Q896.038 26.1121 899.482 28.6237 Q902.965 31.1352 904.626 35.9153 Z" fill="#000000" fill-rule="nonzero" fill-opacity="1"></path><path clip-path="url(#clip380)" d="M957.328 65.7705 L957.328 89.8329 L949.834 89.8329 L949.834 27.2059 L957.328 27.2059 L957.328 34.0924 Q959.678 30.0415 963.243 28.0971 Q966.848 26.1121 971.831 26.1121 Q980.095 26.1121 985.239 32.6746 Q990.424 39.2371 990.424 49.9314 Q990.424 60.6258 985.239 67.1883 Q980.095 73.7508 971.831 73.7508 Q966.848 73.7508 963.243 71.8063 Q959.678 69.8214 957.328 65.7705 M982.687 49.9314 Q982.687 41.7081 979.284 37.0496 Q975.922 32.3505 970.008 32.3505 Q964.093 32.3505 960.691 37.0496 Q957.328 41.7081 957.328 49.9314 Q957.328 58.1548 960.691 62.8538 Q964.093 67.5124 970.008 67.5124 Q975.922 67.5124 979.284 62.8538 Q982.687 58.1548 982.687 49.9314 Z" fill="#000000" fill-rule="nonzero" fill-opacity="1"></path><path clip-path="url(#clip380)" d="M1041.59 48.0275 L1041.59 51.6733 L1007.32 51.6733 Q1007.8 59.3701 1011.93 63.421 Q1016.11 67.4314 1023.52 67.4314 Q1027.81 67.4314 1031.82 66.3781 Q1035.88 65.3249 1039.85 63.2184 L1039.85 70.267 Q1035.83 71.9684 1031.62 72.8596 Q1027.41 73.7508 1023.07 73.7508 Q1012.22 73.7508 1005.86 67.4314 Q999.539 61.1119 999.539 50.3365 Q999.539 39.1965 1005.53 32.6746 Q1011.57 26.1121 1021.78 26.1121 Q1030.93 26.1121 1036.24 32.0264 Q1041.59 37.9003 1041.59 48.0275 M1034.13 45.84 Q1034.05 39.7232 1030.69 36.0774 Q1027.37 32.4315 1021.86 32.4315 Q1015.62 32.4315 1011.85 35.9558 Q1008.13 39.4801 1007.56 45.8805 L1034.13 45.84 Z" fill="#000000" fill-rule="nonzero" fill-opacity="1"></path><path clip-path="url(#clip380)" d="M1080.11 34.1734 Q1078.86 33.4443 1077.36 33.1202 Q1075.9 32.7556 1074.12 32.7556 Q1067.8 32.7556 1064.39 36.8875 Q1061.03 40.9789 1061.03 48.6757 L1061.03 72.576 L1053.54 72.576 L1053.54 27.2059 L1061.03 27.2059 L1061.03 34.2544 Q1063.38 30.1225 1067.15 28.1376 Q1070.92 26.1121 1076.3 26.1121 Q1077.07 26.1121 1078 26.2337 Q1078.94 26.3147 1080.07 26.5172 L1080.11 34.1734 Z" fill="#000000" fill-rule="nonzero" fill-opacity="1"></path><path clip-path="url(#clip380)" d="M1108.55 49.7694 Q1099.52 49.7694 1096.03 51.8354 Q1092.55 53.9013 1092.55 58.8839 Q1092.55 62.8538 1095.14 65.2034 Q1097.77 67.5124 1102.27 67.5124 Q1108.47 67.5124 1112.19 63.1374 Q1115.96 58.7219 1115.96 51.4303 L1115.96 49.7694 L1108.55 49.7694 M1123.42 46.6907 L1123.42 72.576 L1115.96 72.576 L1115.96 65.6895 Q1113.41 69.8214 1109.6 71.8063 Q1105.79 73.7508 1100.28 73.7508 Q1093.32 73.7508 1089.19 69.8619 Q1085.09 65.9325 1085.09 59.3701 Q1085.09 51.7138 1090.2 47.825 Q1095.34 43.9361 1105.51 43.9361 L1115.96 43.9361 L1115.96 43.2069 Q1115.96 38.0623 1112.56 35.2672 Q1109.2 32.4315 1103.08 32.4315 Q1099.19 32.4315 1095.5 33.3632 Q1091.82 34.295 1088.42 36.1584 L1088.42 29.2718 Q1092.51 27.692 1096.36 26.9223 Q1100.2 26.1121 1103.85 26.1121 Q1113.69 26.1121 1118.55 31.2163 Q1123.42 36.3204 1123.42 46.6907 Z" fill="#000000" fill-rule="nonzero" fill-opacity="1"></path><path clip-path="url(#clip380)" d="M1146.14 14.324 L1146.14 27.2059 L1161.49 27.2059 L1161.49 32.9987 L1146.14 32.9987 L1146.14 57.6282 Q1146.14 63.1779 1147.64 64.7578 Q1149.18 66.3376 1153.84 66.3376 L1161.49 66.3376 L1161.49 72.576 L1153.84 72.576 Q1145.21 72.576 1141.93 69.3758 Q1138.65 66.1351 1138.65 57.6282 L1138.65 32.9987 L1133.18 32.9987 L1133.18 27.2059 L1138.65 27.2059 L1138.65 14.324 L1146.14 14.324 Z" fill="#000000" fill-rule="nonzero" fill-opacity="1"></path><path clip-path="url(#clip380)" d="M1170.53 54.671 L1170.53 27.2059 L1177.98 27.2059 L1177.98 54.3874 Q1177.98 60.8284 1180.49 64.0691 Q1183 67.2693 1188.03 67.2693 Q1194.06 67.2693 1197.55 63.421 Q1201.07 59.5726 1201.07 52.9291 L1201.07 27.2059 L1208.53 27.2059 L1208.53 72.576 L1201.07 72.576 L1201.07 65.6084 Q1198.36 69.7404 1194.75 71.7658 Q1191.19 73.7508 1186.45 73.7508 Q1178.63 73.7508 1174.58 68.8897 Q1170.53 64.0286 1170.53 54.671 M1189.28 26.1121 L1189.28 26.1121 Z" fill="#000000" fill-rule="nonzero" fill-opacity="1"></path><path clip-path="url(#clip380)" d="M1250.17 34.1734 Q1248.91 33.4443 1247.41 33.1202 Q1245.96 32.7556 1244.17 32.7556 Q1237.85 32.7556 1234.45 36.8875 Q1231.09 40.9789 1231.09 48.6757 L1231.09 72.576 L1223.59 72.576 L1223.59 27.2059 L1231.09 27.2059 L1231.09 34.2544 Q1233.44 30.1225 1237.21 28.1376 Q1240.97 26.1121 1246.36 26.1121 Q1247.13 26.1121 1248.06 26.2337 Q1248.99 26.3147 1250.13 26.5172 L1250.17 34.1734 Z" fill="#000000" fill-rule="nonzero" fill-opacity="1"></path><path clip-path="url(#clip380)" d="M1294.97 48.0275 L1294.97 51.6733 L1260.7 51.6733 Q1261.19 59.3701 1265.32 63.421 Q1269.49 67.4314 1276.9 67.4314 Q1281.2 67.4314 1285.21 66.3781 Q1289.26 65.3249 1293.23 63.2184 L1293.23 70.267 Q1289.22 71.9684 1285.01 72.8596 Q1280.79 73.7508 1276.46 73.7508 Q1265.6 73.7508 1259.24 67.4314 Q1252.92 61.1119 1252.92 50.3365 Q1252.92 39.1965 1258.92 32.6746 Q1264.95 26.1121 1275.16 26.1121 Q1284.32 26.1121 1289.62 32.0264 Q1294.97 37.9003 1294.97 48.0275 M1287.52 45.84 Q1287.44 39.7232 1284.07 36.0774 Q1280.75 32.4315 1275.24 32.4315 Q1269.01 32.4315 1265.24 35.9558 Q1261.51 39.4801 1260.94 45.8805 L1287.52 45.84 Z" fill="#000000" fill-rule="nonzero" fill-opacity="1"></path><path clip-path="url(#clip380)" d="M1342.08 18.8205 L1342.08 41.5461 L1352.37 41.5461 Q1358.08 41.5461 1361.2 38.5889 Q1364.32 35.6318 1364.32 30.163 Q1364.32 24.7348 1361.2 21.7777 Q1358.08 18.8205 1352.37 18.8205 L1342.08 18.8205 M1333.9 12.096 L1352.37 12.096 Q1362.54 12.096 1367.73 16.714 Q1372.95 21.2916 1372.95 30.163 Q1372.95 39.1155 1367.73 43.6931 Q1362.54 48.2706 1352.37 48.2706 L1342.08 48.2706 L1342.08 72.576 L1333.9 72.576 L1333.9 12.096 Z" fill="#000000" fill-rule="nonzero" fill-opacity="1"></path><path clip-path="url(#clip380)" d="M1408.44 34.1734 Q1407.18 33.4443 1405.68 33.1202 Q1404.22 32.7556 1402.44 32.7556 Q1396.12 32.7556 1392.72 36.8875 Q1389.36 40.9789 1389.36 48.6757 L1389.36 72.576 L1381.86 72.576 L1381.86 27.2059 L1389.36 27.2059 L1389.36 34.2544 Q1391.71 30.1225 1395.47 28.1376 Q1399.24 26.1121 1404.63 26.1121 Q1405.4 26.1121 1406.33 26.2337 Q1407.26 26.3147 1408.4 26.5172 L1408.44 34.1734 Z" fill="#000000" fill-rule="nonzero" fill-opacity="1"></path><path clip-path="url(#clip380)" d="M1432.01 32.4315 Q1426.02 32.4315 1422.53 37.1306 Q1419.05 41.7891 1419.05 49.9314 Q1419.05 58.0738 1422.49 62.7728 Q1425.98 67.4314 1432.01 67.4314 Q1437.97 67.4314 1441.45 62.7323 Q1444.94 58.0333 1444.94 49.9314 Q1444.94 41.8701 1441.45 37.1711 Q1437.97 32.4315 1432.01 32.4315 M1432.01 26.1121 Q1441.74 26.1121 1447.29 32.4315 Q1452.84 38.7509 1452.84 49.9314 Q1452.84 61.0714 1447.29 67.4314 Q1441.74 73.7508 1432.01 73.7508 Q1422.25 73.7508 1416.7 67.4314 Q1411.19 61.0714 1411.19 49.9314 Q1411.19 38.7509 1416.7 32.4315 Q1422.25 26.1121 1432.01 26.1121 Z" fill="#000000" fill-rule="nonzero" fill-opacity="1"></path><path clip-path="url(#clip380)" d="M1488.16 9.54393 L1488.16 15.7418 L1481.03 15.7418 Q1477.02 15.7418 1475.44 17.3622 Q1473.9 18.9825 1473.9 23.1955 L1473.9 27.2059 L1486.17 27.2059 L1486.17 32.9987 L1473.9 32.9987 L1473.9 72.576 L1466.41 72.576 L1466.41 32.9987 L1459.28 32.9987 L1459.28 27.2059 L1466.41 27.2059 L1466.41 24.0462 Q1466.41 16.471 1469.93 13.0277 Q1473.45 9.54393 1481.11 9.54393 L1488.16 9.54393 Z" fill="#000000" fill-rule="nonzero" fill-opacity="1"></path><path clip-path="url(#clip380)" d="M1494.4 27.2059 L1501.85 27.2059 L1501.85 72.576 L1494.4 72.576 L1494.4 27.2059 M1494.4 9.54393 L1501.85 9.54393 L1501.85 18.9825 L1494.4 18.9825 L1494.4 9.54393 Z" fill="#000000" fill-rule="nonzero" fill-opacity="1"></path><path clip-path="url(#clip380)" d="M1517.45 9.54393 L1524.9 9.54393 L1524.9 72.576 L1517.45 72.576 L1517.45 9.54393 Z" fill="#000000" fill-rule="nonzero" fill-opacity="1"></path><path clip-path="url(#clip380)" d="M1579.3 48.0275 L1579.3 51.6733 L1545.03 51.6733 Q1545.52 59.3701 1549.65 63.421 Q1553.82 67.4314 1561.24 67.4314 Q1565.53 67.4314 1569.54 66.3781 Q1573.59 65.3249 1577.56 63.2184 L1577.56 70.267 Q1573.55 71.9684 1569.34 72.8596 Q1565.13 73.7508 1560.79 73.7508 Q1549.94 73.7508 1543.58 67.4314 Q1537.26 61.1119 1537.26 50.3365 Q1537.26 39.1965 1543.25 32.6746 Q1549.29 26.1121 1559.5 26.1121 Q1568.65 26.1121 1573.96 32.0264 Q1579.3 37.9003 1579.3 48.0275 M1571.85 45.84 Q1571.77 39.7232 1568.41 36.0774 Q1565.09 32.4315 1559.58 32.4315 Q1553.34 32.4315 1549.57 35.9558 Q1545.84 39.4801 1545.28 45.8805 L1571.85 45.84 Z" fill="#000000" fill-rule="nonzero" fill-opacity="1"></path><path clip-path="url(#clip380)" d="M1609.85 12.096 L1661.01 12.096 L1661.01 18.9825 L1639.54 18.9825 L1639.54 72.576 L1631.32 72.576 L1631.32 18.9825 L1609.85 18.9825 L1609.85 12.096 Z" fill="#000000" fill-rule="nonzero" fill-opacity="1"></path><path clip-path="url(#clip380)" d="M1694.43 39.9662 Q1700.3 41.222 1703.59 45.1919 Q1706.91 49.1618 1706.91 54.9951 Q1706.91 63.9476 1700.75 68.8492 Q1694.59 73.7508 1683.25 73.7508 Q1679.44 73.7508 1675.39 72.9811 Q1671.38 72.2519 1667.09 70.7531 L1667.09 62.8538 Q1670.49 64.8388 1674.54 65.8515 Q1678.59 66.8642 1683.01 66.8642 Q1690.7 66.8642 1694.71 63.826 Q1698.77 60.7879 1698.77 54.9951 Q1698.77 49.6479 1695 46.6502 Q1691.27 43.612 1684.59 43.612 L1677.54 43.612 L1677.54 36.8875 L1684.91 36.8875 Q1690.95 36.8875 1694.15 34.4975 Q1697.35 32.067 1697.35 27.5299 Q1697.35 22.8714 1694.03 20.4004 Q1690.74 17.8888 1684.59 17.8888 Q1681.23 17.8888 1677.38 18.618 Q1673.53 19.3471 1668.91 20.8865 L1668.91 13.5948 Q1673.57 12.2985 1677.62 11.6504 Q1681.71 11.0023 1685.32 11.0023 Q1694.63 11.0023 1700.06 15.2557 Q1705.49 19.4686 1705.49 26.6793 Q1705.49 31.7024 1702.61 35.1862 Q1699.74 38.6294 1694.43 39.9662 Z" fill="#000000" fill-rule="nonzero" fill-opacity="1"></path><path clip-path="url(#clip380)" d="M1747.74 27.2059 L1755.19 27.2059 L1755.19 72.576 L1747.74 72.576 L1747.74 27.2059 M1747.74 9.54393 L1755.19 9.54393 L1755.19 18.9825 L1747.74 18.9825 L1747.74 9.54393 Z" fill="#000000" fill-rule="nonzero" fill-opacity="1"></path><path clip-path="url(#clip380)" d="M1808.5 45.1919 L1808.5 72.576 L1801.05 72.576 L1801.05 45.4349 Q1801.05 38.994 1798.54 35.7938 Q1796.03 32.5936 1791 32.5936 Q1784.97 32.5936 1781.48 36.4419 Q1778 40.2903 1778 46.9338 L1778 72.576 L1770.51 72.576 L1770.51 27.2059 L1778 27.2059 L1778 34.2544 Q1780.67 30.163 1784.28 28.1376 Q1787.93 26.1121 1792.67 26.1121 Q1800.48 26.1121 1804.49 30.9732 Q1808.5 35.7938 1808.5 45.1919 Z" fill="#000000" fill-rule="nonzero" fill-opacity="1"></path><path clip-path="url(#clip380)" d="M1850.07 12.096 L1888.31 12.096 L1888.31 18.9825 L1858.25 18.9825 L1858.25 36.8875 L1887.05 36.8875 L1887.05 43.7741 L1858.25 43.7741 L1858.25 65.6895 L1889.04 65.6895 L1889.04 72.576 L1850.07 72.576 L1850.07 12.096 Z" fill="#000000" fill-rule="nonzero" fill-opacity="1"></path><path clip-path="url(#clip380)" d="M1901.15 12.096 L1940.04 12.096 L1940.04 15.5798 L1918.08 72.576 L1909.53 72.576 L1930.19 18.9825 L1901.15 18.9825 L1901.15 12.096 Z" fill="#000000" fill-rule="nonzero" fill-opacity="1"></path><path clip-path="url(#clip380)" d="M1973.5 43.8551 Q1967.66 43.8551 1964.3 46.9743 Q1960.98 50.0935 1960.98 55.5622 Q1960.98 61.0309 1964.3 64.1501 Q1967.66 67.2693 1973.5 67.2693 Q1979.33 67.2693 1982.69 64.1501 Q1986.06 60.9904 1986.06 55.5622 Q1986.06 50.0935 1982.69 46.9743 Q1979.37 43.8551 1973.5 43.8551 M1965.31 40.3713 Q1960.05 39.075 1957.09 35.4697 Q1954.17 31.8644 1954.17 26.6793 Q1954.17 19.4281 1959.32 15.2152 Q1964.5 11.0023 1973.5 11.0023 Q1982.53 11.0023 1987.68 15.2152 Q1992.82 19.4281 1992.82 26.6793 Q1992.82 31.8644 1989.86 35.4697 Q1986.95 39.075 1981.72 40.3713 Q1987.64 41.7486 1990.92 45.759 Q1994.24 49.7694 1994.24 55.5622 Q1994.24 64.3527 1988.85 69.0517 Q1983.5 73.7508 1973.5 73.7508 Q1963.49 73.7508 1958.1 69.0517 Q1952.76 64.3527 1952.76 55.5622 Q1952.76 49.7694 1956.08 45.759 Q1959.4 41.7486 1965.31 40.3713 M1962.32 27.4489 Q1962.32 32.148 1965.23 34.7811 Q1968.19 37.4142 1973.5 37.4142 Q1978.76 37.4142 1981.72 34.7811 Q1984.72 32.148 1984.72 27.4489 Q1984.72 22.7499 1981.72 20.1168 Q1978.76 17.4837 1973.5 17.4837 Q1968.19 17.4837 1965.23 20.1168 Q1962.32 22.7499 1962.32 27.4489 Z" fill="#000000" fill-rule="nonzero" fill-opacity="1"></path><polyline clip-path="url(#clip382)" style="stroke:#009af9; stroke-linecap:round; stroke-linejoin:round; stroke-width:4; stroke-opacity:1; fill:none" points="235.283,1380.82 305.165,1215.42 375.047,1057.16 444.929,916.337 514.811,793.613 584.693,687.966 654.575,598.001 724.457,522.114 794.339,458.556 864.221,405.658 934.103,361.86 1003.99,325.735 1073.87,296.007 1143.75,271.661 1213.63,251.685 1283.51,235.354 1353.4,221.996 1423.28,211.052 1493.16,202.186 1563.04,194.874 1632.92,188.933 1702.81,184.087 1772.69,180.072 1842.57,176.864 1912.45,174.163 1982.33,171.931 2052.22,170.197 2122.1,168.77 2191.98,167.58 2261.86,166.593 2331.74,165.792 2401.63,165.151 2471.51,164.685 2541.39,164.31 2611.27,163.939 2681.15,163.517 2751.04,163.177 2820.92,162.908 2890.8,162.663 2960.68,162.394 3030.56,162.133 3100.45,161.924 3170.33,161.749 3240.21,161.588 3310.09,161.424 3379.97,161.239 3449.86,161.071 3519.74,160.928 3589.62,160.804 3659.5,160.693 3729.38,160.589 3799.27,160.485 3869.15,160.374 3939.03,160.256 "></polyline>
<circle clip-path="url(#clip382)" cx="235.283" cy="1386.4" r="14.4" fill="#e26f46" fill-rule="evenodd" fill-opacity="1" stroke="#000000" stroke-opacity="1" stroke-width="3.2"></circle>
<circle clip-path="url(#clip382)" cx="287.566" cy="1321.04" r="14.4" fill="#e26f46" fill-rule="evenodd" fill-opacity="1" stroke="#000000" stroke-opacity="1" stroke-width="3.2"></circle>
<circle clip-path="url(#clip382)" cx="339.849" cy="1198.11" r="14.4" fill="#e26f46" fill-rule="evenodd" fill-opacity="1" stroke="#000000" stroke-opacity="1" stroke-width="3.2"></circle>
<circle clip-path="url(#clip382)" cx="392.133" cy="1103.66" r="14.4" fill="#e26f46" fill-rule="evenodd" fill-opacity="1" stroke="#000000" stroke-opacity="1" stroke-width="3.2"></circle>
<circle clip-path="url(#clip382)" cx="444.416" cy="1023.52" r="14.4" fill="#e26f46" fill-rule="evenodd" fill-opacity="1" stroke="#000000" stroke-opacity="1" stroke-width="3.2"></circle>
<circle clip-path="url(#clip382)" cx="496.699" cy="956.259" r="14.4" fill="#e26f46" fill-rule="evenodd" fill-opacity="1" stroke="#000000" stroke-opacity="1" stroke-width="3.2"></circle>
<circle clip-path="url(#clip382)" cx="548.983" cy="895.4" r="14.4" fill="#e26f46" fill-rule="evenodd" fill-opacity="1" stroke="#000000" stroke-opacity="1" stroke-width="3.2"></circle>
<circle clip-path="url(#clip382)" cx="601.266" cy="841.672" r="14.4" fill="#e26f46" fill-rule="evenodd" fill-opacity="1" stroke="#000000" stroke-opacity="1" stroke-width="3.2"></circle>
<circle clip-path="url(#clip382)" cx="653.549" cy="793.549" r="14.4" fill="#e26f46" fill-rule="evenodd" fill-opacity="1" stroke="#000000" stroke-opacity="1" stroke-width="3.2"></circle>
<circle clip-path="url(#clip382)" cx="705.832" cy="749.069" r="14.4" fill="#e26f46" fill-rule="evenodd" fill-opacity="1" stroke="#000000" stroke-opacity="1" stroke-width="3.2"></circle>
<circle clip-path="url(#clip382)" cx="758.116" cy="709.044" r="14.4" fill="#e26f46" fill-rule="evenodd" fill-opacity="1" stroke="#000000" stroke-opacity="1" stroke-width="3.2"></circle>
<circle clip-path="url(#clip382)" cx="810.399" cy="671.674" r="14.4" fill="#e26f46" fill-rule="evenodd" fill-opacity="1" stroke="#000000" stroke-opacity="1" stroke-width="3.2"></circle>
<circle clip-path="url(#clip382)" cx="862.682" cy="638.603" r="14.4" fill="#e26f46" fill-rule="evenodd" fill-opacity="1" stroke="#000000" stroke-opacity="1" stroke-width="3.2"></circle>
<circle clip-path="url(#clip382)" cx="914.966" cy="606.231" r="14.4" fill="#e26f46" fill-rule="evenodd" fill-opacity="1" stroke="#000000" stroke-opacity="1" stroke-width="3.2"></circle>
<circle clip-path="url(#clip382)" cx="967.249" cy="576.509" r="14.4" fill="#e26f46" fill-rule="evenodd" fill-opacity="1" stroke="#000000" stroke-opacity="1" stroke-width="3.2"></circle>
<circle clip-path="url(#clip382)" cx="1019.53" cy="549.015" r="14.4" fill="#e26f46" fill-rule="evenodd" fill-opacity="1" stroke="#000000" stroke-opacity="1" stroke-width="3.2"></circle>
<circle clip-path="url(#clip382)" cx="1071.82" cy="524.274" r="14.4" fill="#e26f46" fill-rule="evenodd" fill-opacity="1" stroke="#000000" stroke-opacity="1" stroke-width="3.2"></circle>
<circle clip-path="url(#clip382)" cx="1124.1" cy="502.233" r="14.4" fill="#e26f46" fill-rule="evenodd" fill-opacity="1" stroke="#000000" stroke-opacity="1" stroke-width="3.2"></circle>
<circle clip-path="url(#clip382)" cx="1176.38" cy="483.002" r="14.4" fill="#e26f46" fill-rule="evenodd" fill-opacity="1" stroke="#000000" stroke-opacity="1" stroke-width="3.2"></circle>
<circle clip-path="url(#clip382)" cx="1228.67" cy="464.934" r="14.4" fill="#e26f46" fill-rule="evenodd" fill-opacity="1" stroke="#000000" stroke-opacity="1" stroke-width="3.2"></circle>
<circle clip-path="url(#clip382)" cx="1280.95" cy="446.928" r="14.4" fill="#e26f46" fill-rule="evenodd" fill-opacity="1" stroke="#000000" stroke-opacity="1" stroke-width="3.2"></circle>
<circle clip-path="url(#clip382)" cx="1333.23" cy="430.78" r="14.4" fill="#e26f46" fill-rule="evenodd" fill-opacity="1" stroke="#000000" stroke-opacity="1" stroke-width="3.2"></circle>
<circle clip-path="url(#clip382)" cx="1385.52" cy="416.173" r="14.4" fill="#e26f46" fill-rule="evenodd" fill-opacity="1" stroke="#000000" stroke-opacity="1" stroke-width="3.2"></circle>
<circle clip-path="url(#clip382)" cx="1437.8" cy="402.578" r="14.4" fill="#e26f46" fill-rule="evenodd" fill-opacity="1" stroke="#000000" stroke-opacity="1" stroke-width="3.2"></circle>
<circle clip-path="url(#clip382)" cx="1490.08" cy="389.316" r="14.4" fill="#e26f46" fill-rule="evenodd" fill-opacity="1" stroke="#000000" stroke-opacity="1" stroke-width="3.2"></circle>
<circle clip-path="url(#clip382)" cx="1542.36" cy="376.848" r="14.4" fill="#e26f46" fill-rule="evenodd" fill-opacity="1" stroke="#000000" stroke-opacity="1" stroke-width="3.2"></circle>
<circle clip-path="url(#clip382)" cx="1594.65" cy="365.243" r="14.4" fill="#e26f46" fill-rule="evenodd" fill-opacity="1" stroke="#000000" stroke-opacity="1" stroke-width="3.2"></circle>
<circle clip-path="url(#clip382)" cx="1646.93" cy="354.637" r="14.4" fill="#e26f46" fill-rule="evenodd" fill-opacity="1" stroke="#000000" stroke-opacity="1" stroke-width="3.2"></circle>
<circle clip-path="url(#clip382)" cx="1699.21" cy="345.055" r="14.4" fill="#e26f46" fill-rule="evenodd" fill-opacity="1" stroke="#000000" stroke-opacity="1" stroke-width="3.2"></circle>
<circle clip-path="url(#clip382)" cx="1751.5" cy="336.587" r="14.4" fill="#e26f46" fill-rule="evenodd" fill-opacity="1" stroke="#000000" stroke-opacity="1" stroke-width="3.2"></circle>
<circle clip-path="url(#clip382)" cx="1803.78" cy="329.089" r="14.4" fill="#e26f46" fill-rule="evenodd" fill-opacity="1" stroke="#000000" stroke-opacity="1" stroke-width="3.2"></circle>
<circle clip-path="url(#clip382)" cx="1856.06" cy="321.089" r="14.4" fill="#e26f46" fill-rule="evenodd" fill-opacity="1" stroke="#000000" stroke-opacity="1" stroke-width="3.2"></circle>
<circle clip-path="url(#clip382)" cx="1908.35" cy="313.645" r="14.4" fill="#e26f46" fill-rule="evenodd" fill-opacity="1" stroke="#000000" stroke-opacity="1" stroke-width="3.2"></circle>
<circle clip-path="url(#clip382)" cx="1960.63" cy="307.333" r="14.4" fill="#e26f46" fill-rule="evenodd" fill-opacity="1" stroke="#000000" stroke-opacity="1" stroke-width="3.2"></circle>
<circle clip-path="url(#clip382)" cx="2012.91" cy="301.978" r="14.4" fill="#e26f46" fill-rule="evenodd" fill-opacity="1" stroke="#000000" stroke-opacity="1" stroke-width="3.2"></circle>
<circle clip-path="url(#clip382)" cx="2065.2" cy="295.818" r="14.4" fill="#e26f46" fill-rule="evenodd" fill-opacity="1" stroke="#000000" stroke-opacity="1" stroke-width="3.2"></circle>
<circle clip-path="url(#clip382)" cx="2117.48" cy="290.263" r="14.4" fill="#e26f46" fill-rule="evenodd" fill-opacity="1" stroke="#000000" stroke-opacity="1" stroke-width="3.2"></circle>
<circle clip-path="url(#clip382)" cx="2169.76" cy="284.146" r="14.4" fill="#e26f46" fill-rule="evenodd" fill-opacity="1" stroke="#000000" stroke-opacity="1" stroke-width="3.2"></circle>
<circle clip-path="url(#clip382)" cx="2222.05" cy="278.373" r="14.4" fill="#e26f46" fill-rule="evenodd" fill-opacity="1" stroke="#000000" stroke-opacity="1" stroke-width="3.2"></circle>
<circle clip-path="url(#clip382)" cx="2274.33" cy="273.576" r="14.4" fill="#e26f46" fill-rule="evenodd" fill-opacity="1" stroke="#000000" stroke-opacity="1" stroke-width="3.2"></circle>
<circle clip-path="url(#clip382)" cx="2326.61" cy="269.531" r="14.4" fill="#e26f46" fill-rule="evenodd" fill-opacity="1" stroke="#000000" stroke-opacity="1" stroke-width="3.2"></circle>
<path clip-path="url(#clip380)" d="M305.865 322.316 L786.153 322.316 L786.153 166.796 L305.865 166.796  Z" fill="#ffffff" fill-rule="evenodd" fill-opacity="1"></path>
<polyline clip-path="url(#clip380)" style="stroke:#000000; stroke-linecap:round; stroke-linejoin:round; stroke-width:4; stroke-opacity:1; fill:none" points="305.865,322.316 786.153,322.316 786.153,166.796 305.865,166.796 305.865,322.316 "></polyline>
<polyline clip-path="url(#clip380)" style="stroke:#009af9; stroke-linecap:round; stroke-linejoin:round; stroke-width:4; stroke-opacity:1; fill:none" points="329.393,218.636 470.558,218.636 "></polyline>
<path clip-path="url(#clip380)" d="M514.432 214.967 Q516.029 212.096 518.252 210.731 Q520.474 209.365 523.483 209.365 Q527.534 209.365 529.733 212.212 Q531.932 215.036 531.932 220.268 L531.932 235.916 L527.65 235.916 L527.65 220.407 Q527.65 216.68 526.33 214.874 Q525.011 213.069 522.303 213.069 Q518.992 213.069 517.071 215.268 Q515.15 217.467 515.15 221.263 L515.15 235.916 L510.867 235.916 L510.867 220.407 Q510.867 216.657 509.548 214.874 Q508.229 213.069 505.474 213.069 Q502.21 213.069 500.289 215.291 Q498.367 217.49 498.367 221.263 L498.367 235.916 L494.085 235.916 L494.085 209.99 L498.367 209.99 L498.367 214.018 Q499.826 211.633 501.863 210.499 Q503.9 209.365 506.701 209.365 Q509.525 209.365 511.492 210.8 Q513.483 212.235 514.432 214.967 Z" fill="#000000" fill-rule="nonzero" fill-opacity="1"></path><path clip-path="url(#clip380)" d="M550.474 212.976 Q547.048 212.976 545.057 215.661 Q543.066 218.323 543.066 222.976 Q543.066 227.629 545.034 230.314 Q547.025 232.976 550.474 232.976 Q553.876 232.976 555.867 230.291 Q557.858 227.606 557.858 222.976 Q557.858 218.37 555.867 215.684 Q553.876 212.976 550.474 212.976 M550.474 209.365 Q556.029 209.365 559.201 212.976 Q562.372 216.587 562.372 222.976 Q562.372 229.342 559.201 232.976 Q556.029 236.587 550.474 236.587 Q544.895 236.587 541.724 232.976 Q538.576 229.342 538.576 222.976 Q538.576 216.587 541.724 212.976 Q544.895 209.365 550.474 209.365 Z" fill="#000000" fill-rule="nonzero" fill-opacity="1"></path><path clip-path="url(#clip380)" d="M586.492 213.925 L586.492 199.897 L590.751 199.897 L590.751 235.916 L586.492 235.916 L586.492 232.027 Q585.149 234.342 583.089 235.476 Q581.052 236.587 578.182 236.587 Q573.483 236.587 570.52 232.837 Q567.58 229.087 567.58 222.976 Q567.58 216.865 570.52 213.115 Q573.483 209.365 578.182 209.365 Q581.052 209.365 583.089 210.499 Q585.149 211.61 586.492 213.925 M571.978 222.976 Q571.978 227.675 573.899 230.36 Q575.844 233.022 579.224 233.022 Q582.603 233.022 584.548 230.36 Q586.492 227.675 586.492 222.976 Q586.492 218.277 584.548 215.615 Q582.603 212.93 579.224 212.93 Q575.844 212.93 573.899 215.615 Q571.978 218.277 571.978 222.976 Z" fill="#000000" fill-rule="nonzero" fill-opacity="1"></path><path clip-path="url(#clip380)" d="M621.7 221.888 L621.7 223.971 L602.117 223.971 Q602.395 228.369 604.756 230.684 Q607.14 232.976 611.376 232.976 Q613.83 232.976 616.121 232.374 Q618.436 231.772 620.705 230.569 L620.705 234.596 Q618.413 235.568 616.006 236.078 Q613.598 236.587 611.122 236.587 Q604.918 236.587 601.284 232.976 Q597.673 229.365 597.673 223.207 Q597.673 216.842 601.098 213.115 Q604.547 209.365 610.381 209.365 Q615.612 209.365 618.645 212.745 Q621.7 216.101 621.7 221.888 M617.441 220.638 Q617.395 217.143 615.473 215.059 Q613.575 212.976 610.427 212.976 Q606.862 212.976 604.71 214.99 Q602.58 217.004 602.256 220.661 L617.441 220.638 Z" fill="#000000" fill-rule="nonzero" fill-opacity="1"></path><path clip-path="url(#clip380)" d="M628.691 199.897 L632.95 199.897 L632.95 235.916 L628.691 235.916 L628.691 199.897 Z" fill="#000000" fill-rule="nonzero" fill-opacity="1"></path><circle clip-path="url(#clip380)" cx="399.975" cy="270.476" r="20.48" fill="#e26f46" fill-rule="evenodd" fill-opacity="1" stroke="#000000" stroke-opacity="1" stroke-width="4.55111"></circle>
<path clip-path="url(#clip380)" d="M518.113 273.728 L518.113 275.811 L498.53 275.811 Q498.807 280.209 501.168 282.524 Q503.553 284.816 507.789 284.816 Q510.242 284.816 512.534 284.214 Q514.849 283.612 517.117 282.409 L517.117 286.436 Q514.826 287.408 512.418 287.918 Q510.011 288.427 507.534 288.427 Q501.33 288.427 497.696 284.816 Q494.085 281.205 494.085 275.047 Q494.085 268.682 497.511 264.955 Q500.96 261.205 506.793 261.205 Q512.025 261.205 515.057 264.585 Q518.113 267.941 518.113 273.728 M513.854 272.478 Q513.807 268.983 511.886 266.899 Q509.988 264.816 506.84 264.816 Q503.275 264.816 501.122 266.83 Q498.992 268.844 498.668 272.501 L513.854 272.478 Z" fill="#000000" fill-rule="nonzero" fill-opacity="1"></path><path clip-path="url(#clip380)" d="M545.821 261.83 L536.446 274.446 L546.307 287.756 L541.284 287.756 L533.738 277.571 L526.191 287.756 L521.168 287.756 L531.238 274.191 L522.025 261.83 L527.048 261.83 L533.923 271.066 L540.798 261.83 L545.821 261.83 Z" fill="#000000" fill-rule="nonzero" fill-opacity="1"></path><path clip-path="url(#clip380)" d="M556.446 283.867 L556.446 297.617 L552.164 297.617 L552.164 261.83 L556.446 261.83 L556.446 265.765 Q557.788 263.45 559.826 262.339 Q561.886 261.205 564.733 261.205 Q569.455 261.205 572.395 264.955 Q575.358 268.705 575.358 274.816 Q575.358 280.927 572.395 284.677 Q569.455 288.427 564.733 288.427 Q561.886 288.427 559.826 287.316 Q557.788 286.182 556.446 283.867 M570.937 274.816 Q570.937 270.117 568.992 267.455 Q567.071 264.77 563.691 264.77 Q560.312 264.77 558.367 267.455 Q556.446 270.117 556.446 274.816 Q556.446 279.515 558.367 282.2 Q560.312 284.862 563.691 284.862 Q567.071 284.862 568.992 282.2 Q570.937 279.515 570.937 274.816 Z" fill="#000000" fill-rule="nonzero" fill-opacity="1"></path><path clip-path="url(#clip380)" d="M604.594 273.728 L604.594 275.811 L585.011 275.811 Q585.288 280.209 587.649 282.524 Q590.034 284.816 594.27 284.816 Q596.723 284.816 599.015 284.214 Q601.33 283.612 603.598 282.409 L603.598 286.436 Q601.307 287.408 598.899 287.918 Q596.492 288.427 594.015 288.427 Q587.811 288.427 584.177 284.816 Q580.566 281.205 580.566 275.047 Q580.566 268.682 583.992 264.955 Q587.441 261.205 593.274 261.205 Q598.506 261.205 601.538 264.585 Q604.594 267.941 604.594 273.728 M600.335 272.478 Q600.288 268.983 598.367 266.899 Q596.469 264.816 593.321 264.816 Q589.756 264.816 587.603 266.83 Q585.474 268.844 585.149 272.501 L600.335 272.478 Z" fill="#000000" fill-rule="nonzero" fill-opacity="1"></path><path clip-path="url(#clip380)" d="M626.608 265.811 Q625.89 265.395 625.033 265.21 Q624.2 265.001 623.182 265.001 Q619.571 265.001 617.626 267.362 Q615.705 269.7 615.705 274.098 L615.705 287.756 L611.422 287.756 L611.422 261.83 L615.705 261.83 L615.705 265.858 Q617.047 263.497 619.2 262.362 Q621.353 261.205 624.432 261.205 Q624.871 261.205 625.404 261.274 Q625.936 261.321 626.584 261.436 L626.608 265.811 Z" fill="#000000" fill-rule="nonzero" fill-opacity="1"></path><path clip-path="url(#clip380)" d="M631.075 261.83 L635.334 261.83 L635.334 287.756 L631.075 287.756 L631.075 261.83 M631.075 251.737 L635.334 251.737 L635.334 257.131 L631.075 257.131 L631.075 251.737 Z" fill="#000000" fill-rule="nonzero" fill-opacity="1"></path><path clip-path="url(#clip380)" d="M664.431 266.807 Q666.029 263.936 668.251 262.571 Q670.473 261.205 673.482 261.205 Q677.533 261.205 679.732 264.052 Q681.931 266.876 681.931 272.108 L681.931 287.756 L677.649 287.756 L677.649 272.247 Q677.649 268.52 676.33 266.714 Q675.01 264.909 672.302 264.909 Q668.992 264.909 667.07 267.108 Q665.149 269.307 665.149 273.103 L665.149 287.756 L660.867 287.756 L660.867 272.247 Q660.867 268.497 659.547 266.714 Q658.228 264.909 655.473 264.909 Q652.209 264.909 650.288 267.131 Q648.367 269.33 648.367 273.103 L648.367 287.756 L644.084 287.756 L644.084 261.83 L648.367 261.83 L648.367 265.858 Q649.825 263.473 651.862 262.339 Q653.899 261.205 656.7 261.205 Q659.524 261.205 661.492 262.64 Q663.482 264.075 664.431 266.807 Z" fill="#000000" fill-rule="nonzero" fill-opacity="1"></path><path clip-path="url(#clip380)" d="M712.602 273.728 L712.602 275.811 L693.019 275.811 Q693.297 280.209 695.658 282.524 Q698.042 284.816 702.278 284.816 Q704.732 284.816 707.024 284.214 Q709.339 283.612 711.607 282.409 L711.607 286.436 Q709.315 287.408 706.908 287.918 Q704.501 288.427 702.024 288.427 Q695.82 288.427 692.186 284.816 Q688.575 281.205 688.575 275.047 Q688.575 268.682 692.001 264.955 Q695.45 261.205 701.283 261.205 Q706.515 261.205 709.547 264.585 Q712.602 267.941 712.602 273.728 M708.343 272.478 Q708.297 268.983 706.376 266.899 Q704.478 264.816 701.329 264.816 Q697.765 264.816 695.612 266.83 Q693.482 268.844 693.158 272.501 L708.343 272.478 Z" fill="#000000" fill-rule="nonzero" fill-opacity="1"></path><path clip-path="url(#clip380)" d="M741.144 272.108 L741.144 287.756 L736.885 287.756 L736.885 272.247 Q736.885 268.566 735.45 266.737 Q734.014 264.909 731.144 264.909 Q727.695 264.909 725.704 267.108 Q723.714 269.307 723.714 273.103 L723.714 287.756 L719.431 287.756 L719.431 261.83 L723.714 261.83 L723.714 265.858 Q725.241 263.52 727.301 262.362 Q729.385 261.205 732.093 261.205 Q736.561 261.205 738.852 263.983 Q741.144 266.737 741.144 272.108 Z" fill="#000000" fill-rule="nonzero" fill-opacity="1"></path><path clip-path="url(#clip380)" d="M753.852 254.469 L753.852 261.83 L762.625 261.83 L762.625 265.14 L753.852 265.14 L753.852 279.214 Q753.852 282.385 754.709 283.288 Q755.588 284.191 758.25 284.191 L762.625 284.191 L762.625 287.756 L758.25 287.756 Q753.32 287.756 751.445 285.927 Q749.57 284.075 749.57 279.214 L749.57 265.14 L746.445 265.14 L746.445 261.83 L749.57 261.83 L749.57 254.469 L753.852 254.469 Z" fill="#000000" fill-rule="nonzero" fill-opacity="1"></path></svg>